<svg width="382" height="269" viewBox="0 0 382 269" fill="none" xmlns="http://www.w3.org/2000/svg">
<g filter="url(#filter0_dddd_447_1526)">
<rect x="52.9844" y="57.4452" width="305" height="137" rx="22" transform="rotate(-10.2844 52.9844 57.4452)" fill="white"/>
<rect x="53.5656" y="57.8479" width="304" height="136" rx="21.5" transform="rotate(-10.2844 53.5656 57.8479)" stroke="black"/>
<path fill-rule="evenodd" clip-rule="evenodd" d="M77.5907 68.3333C77.6866 68.2494 77.8381 68.1454 78.0567 68.0247C78.5659 67.7437 79.3436 67.4259 80.3444 67.0931C82.3402 66.4303 85.1512 65.7317 88.3031 65.1598C91.455 64.5879 94.3329 64.2533 96.4336 64.1737C97.4876 64.1336 98.3273 64.158 98.9028 64.2421C99.1499 64.2784 99.3282 64.3225 99.4475 64.3674C99.3033 64.4862 99.1471 64.5896 98.9815 64.676C98.4723 64.957 97.6946 65.2748 96.6938 65.6076C94.698 66.2704 91.887 66.969 88.7351 67.5409C85.5833 68.1128 82.7053 68.4473 80.6046 68.527C79.5506 68.567 78.7109 68.5427 78.1354 68.4585C77.95 68.4358 77.7675 68.3939 77.5907 68.3333ZM99.5475 64.2609L99.5486 64.257L99.5502 64.2558L99.5475 64.2609ZM80.0617 66.2425C82.1088 65.5614 84.963 64.8549 88.1431 64.2779C91.3232 63.7009 94.2437 63.3604 96.3995 63.278C97.4734 63.2371 98.3764 63.2591 99.0324 63.3551C99.3572 63.4027 99.6492 63.4709 99.8767 63.5753C100.087 63.6719 100.364 63.8541 100.425 64.1901L101.556 70.425C101.564 70.4691 101.569 70.5128 101.572 70.556L101.577 70.5916C101.651 71.2024 101.72 71.8138 101.785 72.4258C101.915 73.6228 102.077 75.2432 102.208 76.9318C102.34 78.6205 102.442 80.382 102.449 81.8636C102.452 82.6036 102.433 83.2803 102.379 83.8467C102.327 84.399 102.241 84.892 102.086 85.2343C101.584 86.3587 100.976 87.4337 100.271 88.4431L100.789 91.3022L108.765 93.5024L108.776 93.5049L108.788 93.5092C109.861 93.8685 110.818 94.5092 111.56 95.3643C112.301 96.2194 112.8 97.2578 113.003 98.3711L113.263 99.8006L112.381 99.9607L112.122 98.532C111.947 97.5782 111.52 96.6886 110.886 95.9553C110.252 95.2221 109.433 94.6721 108.514 94.3624L100.773 92.227C100.512 93.7527 99.8093 95.1682 98.7518 96.2985C97.6944 97.4288 96.3287 98.2242 94.8238 98.5863L95.6248 103.001L94.743 103.161L93.9419 98.7463C92.4057 98.936 90.8477 98.6712 89.4605 97.9844C88.0733 97.2977 86.918 96.2193 86.1375 94.8827L79.6407 99.6014C78.8893 100.214 78.3156 101.017 77.9793 101.926C77.6429 102.836 77.5561 103.818 77.7278 104.773L77.9871 106.201L77.1052 106.361L76.8459 104.933C76.6453 103.819 76.7472 102.671 77.1411 101.61C77.5349 100.549 78.2062 99.6123 79.0851 98.8988L79.0936 98.8908L79.1034 98.8845L85.7974 94.0225L85.2848 91.1979C84.2564 90.4935 83.2987 89.6911 82.4252 88.8018C82.1592 88.5358 81.9041 88.1038 81.6616 87.6058C81.4139 87.0942 81.1572 86.4676 80.9009 85.7726C80.3899 84.3824 79.8689 82.696 79.4033 81.0689C78.8207 79.0264 78.2803 76.9721 77.7825 74.9073L77.773 74.8653C77.7609 74.826 77.7515 74.786 77.7449 74.7456L76.6136 68.5106C76.5526 68.1746 76.7482 67.9068 76.9107 67.7434C77.088 67.5655 77.3364 67.3984 77.6237 67.2397C78.2032 66.9195 79.0421 66.5824 80.0617 66.2425ZM86.7178 94.0751C87.4026 95.4202 88.5027 96.5087 89.8551 97.1791C91.2074 97.8495 92.7399 98.066 94.225 97.7966C95.7102 97.5271 97.0689 96.786 98.0995 95.6832C99.1301 94.5804 99.7777 93.1747 99.9462 91.6748L99.5349 89.4083C97.318 92.0906 94.9229 93.1082 93.4061 93.3834C91.8954 93.6576 89.3096 93.5492 86.3119 91.8377L86.7178 94.0751ZM99.4147 65.4619C99.5195 65.4034 99.6187 65.3444 99.7123 65.2849L100.672 70.5736L100.674 70.596L100.68 70.6368C100.683 70.7229 100.658 70.8367 100.571 70.9872C100.466 71.1712 100.284 71.3847 100.012 71.6198C99.4705 72.0897 98.6437 72.5886 97.616 73.0747C95.5649 74.0454 92.8041 74.9198 90.1611 75.3994C87.5198 75.8787 84.6256 76.0231 82.3637 75.8323C81.2297 75.7374 80.2801 75.559 79.6073 75.3103C79.2704 75.1856 79.0248 75.0517 78.8619 74.9173C78.7261 74.8062 78.6638 74.7091 78.6385 74.6299L78.6289 74.597L77.6651 69.2854C77.7737 69.3082 77.8873 69.3286 78.006 69.3465C78.661 69.4426 79.565 69.4644 80.639 69.4244C82.7937 69.3413 85.7152 69.0007 88.8953 68.4237C92.0754 67.8466 94.9294 67.1393 96.9767 66.459C97.9965 66.12 98.8343 65.7822 99.4147 65.4619ZM100.6 72.2973C100.686 72.2223 100.767 72.1465 100.845 72.0698C101.026 73.7117 101.183 75.3563 101.315 77.0029C101.446 78.6815 101.546 80.4197 101.553 81.8687C101.557 82.593 101.536 83.2381 101.487 83.7635C101.436 84.302 101.358 84.6686 101.269 84.867C98.7135 90.5138 95.0786 92.169 93.246 92.5016C91.4126 92.8342 87.4209 92.5629 83.0613 88.1708L83.0601 88.1692C82.9064 88.0149 82.7044 87.6999 82.4677 87.2136C82.1982 86.6421 81.9563 86.0579 81.7429 85.4632C81.2421 84.1038 80.729 82.4407 80.2648 80.8215C79.8109 79.2285 79.3827 77.6284 78.9803 76.0217C79.0821 76.067 79.1873 76.1098 79.2961 76.1502C80.0771 76.4385 81.1177 76.6259 82.288 76.725C82.4421 76.7378 82.5984 76.7492 82.757 76.7593C83.3213 77.7509 84.4535 78.378 85.8003 78.6966C87.267 79.0435 89.0777 79.0475 90.9614 78.7057C92.8451 78.3639 94.4596 77.7384 95.6262 76.9082C96.6969 76.1474 97.4298 75.1809 97.5768 74.0784C97.7206 74.0141 97.8613 73.9494 97.9988 73.8843C99.0609 73.3819 99.9686 72.8419 100.599 72.2957M86.0052 77.8232C85.0821 77.6054 84.3787 77.253 83.9184 76.8045C85.9307 76.8402 88.2053 76.6643 90.32 76.2806C92.4447 75.8901 94.5273 75.2984 96.5398 74.5134C96.3067 75.0959 95.8283 75.6628 95.1055 76.1774C94.0754 76.9109 92.5941 77.4976 90.8003 77.8231C89.0066 78.1485 87.3251 78.1339 86.0052 77.8232ZM93.695 78.9867C93.822 78.8639 93.9719 78.7673 94.1362 78.7024C94.3005 78.6375 94.4759 78.6057 94.6525 78.6086C94.8291 78.6115 95.0034 78.6492 95.1654 78.7195C95.3275 78.7898 95.4741 78.8913 95.5969 79.0183C95.7197 79.1452 95.8163 79.2951 95.8811 79.4594C95.946 79.6237 95.9779 79.7991 95.975 79.9757C95.972 80.1523 95.9343 80.3266 95.864 80.4886C95.7938 80.6507 95.6922 80.7973 95.5653 80.9201C95.3089 81.168 94.9645 81.3038 94.6079 81.2978C94.2513 81.2918 93.9117 81.1444 93.6638 80.888C93.4159 80.6316 93.2801 80.2872 93.2861 79.9306C93.2921 79.574 93.4386 79.2346 93.695 78.9867ZM94.551 79.5118C94.434 79.533 94.3303 79.5999 94.2626 79.6976C94.1949 79.7953 94.1688 79.9158 94.19 80.0328C94.2112 80.1497 94.2781 80.2535 94.3758 80.3211C94.4734 80.3888 94.594 80.4149 94.711 80.3937C94.8279 80.3725 94.9317 80.3057 94.9993 80.208C95.067 80.1103 95.0931 79.9897 95.0719 79.8728C95.0507 79.7558 94.9839 79.6521 94.8862 79.5844C94.7885 79.5167 94.6679 79.4906 94.551 79.5118ZM87.3358 79.9101C86.985 79.9738 86.6738 80.1742 86.4707 80.4673C86.2677 80.7604 86.1894 81.1221 86.253 81.473C86.3167 81.8238 86.5171 82.135 86.8102 82.338C87.1033 82.5411 87.465 82.6194 87.8159 82.5558C88.1667 82.4921 88.4779 82.2917 88.681 81.9986C88.884 81.7055 88.9623 81.3437 88.8987 80.9929C88.835 80.6421 88.6346 80.3309 88.3415 80.1278C88.0484 79.9247 87.6867 79.8464 87.3358 79.9101ZM87.2641 80.9105C87.3057 80.8665 87.3557 80.8314 87.4112 80.8073C87.4667 80.7831 87.5265 80.7705 87.5871 80.7701C87.6476 80.7697 87.7075 80.7816 87.7634 80.805C87.8192 80.8284 87.8697 80.8629 87.9118 80.9063C87.9539 80.9498 87.9868 81.0013 88.0084 81.0579C88.0301 81.1144 88.0401 81.1747 88.0378 81.2352C88.0355 81.2957 88.021 81.355 87.9951 81.4098C87.9692 81.4645 87.9326 81.5134 87.8873 81.5535C87.8009 81.6301 87.6883 81.6704 87.573 81.666C87.4577 81.6617 87.3485 81.613 87.2681 81.5301C87.1878 81.4472 87.1426 81.3365 87.1418 81.2211C87.1411 81.1057 87.1849 80.9945 87.2641 80.9105ZM86.7672 71.7056L88.2213 69.7293L86.9073 69.9677L85.1114 72.5709L87.7074 74.3771L89.0214 74.1387L86.9672 72.808L89.0573 72.4288L89.3565 74.0779L90.45 73.8795L90.1508 72.2303L92.2409 71.8511L90.7852 73.8187L92.0992 73.5802L93.895 70.9771L91.2991 69.1708L89.9851 69.4092L92.0409 70.7487L89.9508 71.128L89.6499 69.47L88.5564 69.6684L88.8572 71.3264L86.7672 71.7056ZM92.3494 87.1987C94.0129 86.972 95.5268 86.1179 96.5811 84.8112L97.2788 85.3733C96.0851 86.8532 94.3724 87.8226 92.4891 88.0843C90.7302 88.4707 88.8913 88.2215 87.2986 87.381L87.7177 86.588C89.1276 87.3321 90.7561 87.551 92.3124 87.2054L92.3494 87.1987ZM100.276 98.5133L107.331 97.2332L107.971 100.761L100.916 102.041L100.276 98.5133ZM101.318 99.2352L101.638 100.999L106.929 100.039L106.609 98.2751L101.318 99.2352Z" fill="black"/>
<path d="M125.418 87.3672C124.204 87.5874 123.081 87.4976 122.049 87.0977C121.025 86.6849 120.164 86.0113 119.463 85.0769C118.761 84.1315 118.287 82.981 118.041 81.6253C117.793 80.2588 117.833 79.015 118.16 77.8941C118.487 76.7732 119.059 75.8452 119.874 75.1101C120.698 74.3621 121.717 73.8779 122.93 73.6577C123.892 73.4832 124.79 73.5123 125.622 73.7452C126.453 73.9671 127.175 74.3668 127.788 74.9445C128.401 75.5221 128.855 76.2527 129.151 77.1363L126.839 77.5559C126.595 76.8323 126.148 76.2979 125.498 75.9529C124.859 75.6058 124.124 75.5076 123.293 75.6584C122.506 75.8012 121.854 76.1285 121.337 76.6401C120.82 77.1517 120.469 77.7971 120.282 78.5761C120.096 79.3552 120.093 80.2367 120.271 81.2207C120.448 82.1937 120.761 83.0176 121.211 83.6926C121.659 84.3566 122.215 84.8373 122.878 85.1347C123.542 85.4321 124.268 85.5094 125.055 85.3665C125.886 85.2158 126.539 84.8657 127.015 84.3163C127.501 83.754 127.731 83.0967 127.708 82.3443L130.02 81.9248C130.052 82.845 129.883 83.6887 129.514 84.4558C129.143 85.212 128.608 85.8453 127.911 86.3559C127.211 86.8555 126.38 87.1926 125.418 87.3672ZM136.9 85.2499C135.992 85.4146 135.14 85.3546 134.343 85.0701C133.555 84.7727 132.884 84.279 132.33 83.5891C131.786 82.8973 131.421 82.032 131.232 80.9934C131.042 79.9439 131.079 78.9998 131.345 78.1611C131.622 77.3204 132.077 76.6279 132.713 76.0835C133.359 75.5372 134.136 75.1817 135.043 75.017C135.972 74.8484 136.83 74.9073 137.616 75.1938C138.402 75.4803 139.067 75.9695 139.61 76.6614C140.153 77.3533 140.52 78.224 140.711 79.2735C140.899 80.3121 140.862 81.2562 140.598 82.1058C140.332 82.9445 139.876 83.637 139.23 84.1834C138.595 84.7278 137.818 85.0833 136.9 85.2499ZM136.549 83.3149C137.336 83.172 137.906 82.7692 138.26 82.1065C138.625 81.4418 138.721 80.6284 138.546 79.6663C138.369 78.6933 137.995 77.9652 137.421 77.482C136.857 76.9859 136.181 76.8093 135.394 76.9521C134.629 77.0909 134.058 77.4937 133.682 78.1604C133.315 78.8142 133.22 79.6276 133.397 80.6006C133.571 81.5627 133.946 82.2908 134.521 82.7849C135.108 83.2771 135.783 83.4537 136.549 83.3149ZM143.812 83.7924L142.027 73.9531L144.142 73.5692L144.419 75.0943L144.485 75.0824C144.67 74.4842 144.987 73.9919 145.436 73.6055C145.896 73.2171 146.465 72.9614 147.143 72.8384C147.865 72.7074 148.525 72.7683 149.124 73.0209C149.732 73.2607 150.245 73.6589 150.662 74.2155C151.08 74.7722 151.361 75.4496 151.505 76.2477L152.585 82.2005L150.421 82.5933L149.412 77.034C149.271 76.2578 148.964 75.6868 148.491 75.3209C148.027 74.9421 147.446 74.8162 146.746 74.9431C146.046 75.0701 145.54 75.3934 145.228 75.913C144.914 76.4217 144.827 77.0642 144.968 77.8404L145.977 83.3996L143.812 83.7924ZM157.644 81.2827C157.064 81.3878 156.583 81.3171 156.199 81.0705C155.816 80.8239 155.567 80.389 155.454 79.7659L154.321 73.5179L152.713 73.8095L152.398 72.0712L154.022 71.7766L153.486 68.8248L155.618 68.438L156.153 71.3898L158.351 70.9911L158.666 72.7294L156.485 73.1251L157.64 79.4879L160.034 79.0534L160.349 80.7917L157.644 81.2827ZM162.31 80.4361L160.524 70.5967L162.607 70.2188L162.937 72.0391L163.003 72.0272C163.116 71.4081 163.376 70.881 163.783 70.4458C164.19 70.0107 164.726 69.7326 165.393 69.6116L166.164 69.4718L166.512 71.3904L165.643 71.5481C164.768 71.7068 164.161 72.0937 163.821 72.7087C163.481 73.3238 163.392 74.0795 163.555 74.976L164.474 80.0433L162.31 80.4361ZM173.567 78.5967C172.659 78.7614 171.807 78.7014 171.01 78.4169C170.222 78.1195 169.551 77.6258 168.997 76.9359C168.453 76.244 168.087 75.3788 167.899 74.3402C167.709 73.2907 167.746 72.3466 168.012 71.5079C168.288 70.6672 168.744 69.9747 169.38 69.4303C170.026 68.884 170.803 68.5284 171.71 68.3638C172.639 68.1952 173.497 68.2541 174.283 68.5406C175.069 68.8271 175.734 69.3163 176.277 70.0082C176.82 70.7001 177.187 71.5708 177.378 72.6203C177.566 73.6589 177.528 74.603 177.265 75.4526C176.999 76.2913 176.543 76.9838 175.897 77.5302C175.262 78.0746 174.485 78.4301 173.567 78.5967ZM173.216 76.6616C174.003 76.5188 174.573 76.116 174.927 75.4533C175.292 74.7886 175.387 73.9752 175.213 73.0131C175.036 72.0401 174.661 71.312 174.088 70.8288C173.524 70.3327 172.848 70.156 172.061 70.2989C171.296 70.4377 170.725 70.8405 170.349 71.5072C169.982 72.161 169.887 72.9744 170.064 73.9474C170.238 74.9095 170.613 75.6376 171.188 76.1317C171.775 76.6239 172.45 76.8005 173.216 76.6616ZM168.188 67.9019L168.176 67.8363L169.893 64.5097L172.024 64.1228L174.834 66.6282L174.845 66.6938L173.173 66.9973L171.21 65.7951L169.827 67.6044L168.188 67.9019ZM180.512 77.1333L178.012 63.3582L180.177 62.9654L182.676 76.7405L180.512 77.1333ZM189.657 75.6771C188.739 75.8437 187.887 75.7838 187.101 75.4973C186.324 75.1978 185.664 74.7022 185.12 74.0103C184.575 73.3075 184.207 72.4313 184.017 71.3818C183.828 70.3432 183.862 69.411 184.119 68.5853C184.374 67.7486 184.808 67.06 185.421 66.5196C186.045 65.9772 186.806 65.6247 187.702 65.462C188.533 65.3112 189.311 65.3677 190.037 65.6313C190.771 65.882 191.394 66.3279 191.905 66.9691C192.417 67.6103 192.763 68.4283 192.944 69.4232L193.098 70.2759L186.211 71.5257C186.446 72.3864 186.839 73.0266 187.389 73.4461C187.949 73.8528 188.589 73.9907 189.311 73.8598C189.835 73.7645 190.255 73.5585 190.571 73.2416C190.895 72.9117 191.076 72.5118 191.115 72.0417L193.329 71.64C193.321 72.3416 193.159 72.9751 192.844 73.5405C192.527 74.0949 192.097 74.5569 191.554 74.9264C191.011 75.2959 190.379 75.5461 189.657 75.6771ZM185.994 69.9559L190.717 69.0989C190.498 68.3932 190.147 67.8868 189.662 67.5795C189.186 67.2593 188.642 67.1548 188.029 67.2659C187.406 67.3789 186.912 67.6719 186.546 68.1449C186.191 68.6158 186.007 69.2195 185.994 69.9559ZM199.664 73.8444C198.953 73.9733 198.301 73.9224 197.705 73.6916C197.108 73.4499 196.603 73.0617 196.19 72.5269C195.785 71.9791 195.512 71.3117 195.369 70.5245L194.271 64.4733L196.436 64.0806L197.453 69.689C197.592 70.4543 197.887 71.0218 198.338 71.3917C198.787 71.7506 199.351 71.8686 200.029 71.7456C200.728 71.6186 201.245 71.2933 201.579 70.7697C201.922 70.2332 202.025 69.5878 201.889 68.8334L200.88 63.2742L203.044 62.8814L204.83 72.7207L202.714 73.1046L202.42 71.4811L202.354 71.493C202.186 72.122 201.874 72.6417 201.417 73.052C200.959 73.4513 200.375 73.7154 199.664 73.8444ZM207.74 72.1928L205.954 62.3534L208.037 61.9755L208.367 63.7958L208.433 63.7839C208.546 63.1648 208.806 62.6377 209.213 62.2025C209.62 61.7674 210.156 61.4893 210.823 61.3683L211.594 61.2285L211.942 63.1471L211.073 63.3048C210.198 63.4635 209.591 63.8504 209.251 64.4654C208.911 65.0805 208.822 65.8363 208.985 66.7327L209.904 71.8L207.74 72.1928ZM218.579 70.4291C217.366 70.6493 216.322 70.5282 215.447 70.0658C214.584 69.6014 214.027 68.8668 213.777 67.8619L215.876 67.481C216.046 67.981 216.342 68.3339 216.763 68.5398C217.195 68.7437 217.723 68.7891 218.346 68.676C218.903 68.5748 219.306 68.3946 219.552 68.1353C219.808 67.8631 219.899 67.5247 219.825 67.1202C219.716 66.5189 219.23 66.2062 218.368 66.182L216.577 66.1173C214.704 66.062 213.64 65.3346 213.387 63.9352C213.222 63.0278 213.428 62.2339 214.005 61.5533C214.592 60.8708 215.438 60.4293 216.542 60.229C217.646 60.0286 218.606 60.1537 219.422 60.6042C220.236 61.0437 220.763 61.7386 221.003 62.6887L218.92 63.0666C218.737 62.6144 218.458 62.2923 218.084 62.1004C217.709 61.8975 217.259 61.8437 216.734 61.9389C216.264 62.0242 215.905 62.1965 215.659 62.4558C215.41 62.7041 215.319 63.0087 215.384 63.3695C215.436 63.6537 215.57 63.8665 215.788 64.0077C216.015 64.1359 216.338 64.2071 216.758 64.2212L218.598 64.277C219.53 64.3111 220.262 64.5171 220.794 64.8949C221.334 65.2598 221.674 65.8249 221.813 66.5902C221.987 67.5523 221.787 68.3791 221.212 69.0706C220.638 69.762 219.76 70.2149 218.579 70.4291Z" fill="black"/>
<rect x="230.233" y="53.4767" width="64.3686" height="17.2415" rx="5" transform="rotate(-10.2844 230.233 53.4767)" fill="#EB0000"/>
<path d="M236.023 65.3547L234.559 57.2861L235.664 57.0855L236.281 60.4823L240.405 59.734L239.788 56.3372L240.894 56.1365L242.358 64.2052L241.253 64.4058L240.582 60.7102L236.458 61.4585L237.129 65.1541L236.023 65.3547Z" fill="white"/>
<path d="M244.543 63.8088L243.079 55.7402L244.174 55.5414L245.638 63.61L244.543 63.8088Z" fill="white"/>
<path d="M250.974 62.7653C250.277 62.8918 249.627 62.8279 249.026 62.5735C248.424 62.3192 247.914 61.9076 247.495 61.3388C247.075 60.7633 246.791 60.0705 246.644 59.2603C246.495 58.4368 246.523 57.6841 246.728 57.002C246.934 56.3199 247.288 55.755 247.789 55.3073C248.297 54.8517 248.916 54.5576 249.646 54.4251C250.217 54.3214 250.744 54.3355 251.228 54.4673C251.718 54.5978 252.141 54.8298 252.496 55.1632C252.858 55.4953 253.131 55.9225 253.315 56.4447L252.17 56.6526C252.001 56.1756 251.708 55.8275 251.291 55.6082C250.873 55.3823 250.385 55.32 249.827 55.4212C249.302 55.5164 248.865 55.7329 248.514 56.0709C248.163 56.4022 247.921 56.8268 247.789 57.3447C247.655 57.8559 247.646 58.4303 247.762 59.0678C247.874 59.6854 248.083 60.2167 248.391 60.6618C248.696 61.1001 249.071 61.4232 249.513 61.6311C249.955 61.8389 250.432 61.8964 250.944 61.8036C251.362 61.7277 251.716 61.5811 252.006 61.3639C252.301 61.1388 252.517 60.8733 252.654 60.5673C252.796 60.2534 252.836 59.9272 252.775 59.5885L252.682 59.0805L250.381 59.498L250.213 58.5716L252.624 58.1342C252.936 58.0775 253.19 58.1172 253.386 58.2531C253.582 58.389 253.709 58.613 253.765 58.9251L254.329 62.033L253.293 62.221L253.08 61.0456L253.04 61.0528C252.956 61.459 252.734 61.8218 252.373 62.141C252.012 62.4535 251.545 62.6616 250.974 62.7653Z" fill="white"/>
<path d="M256.229 61.6882L254.765 53.6196L255.871 53.419L256.487 56.8158L260.611 56.0675L259.995 52.6707L261.101 52.4701L262.565 60.5387L261.459 60.7393L260.788 57.0437L256.665 57.792L257.335 61.4876L256.229 61.6882Z" fill="white"/>
<path d="M267.693 59.6082L266.229 51.5396L269.675 50.9142C270.167 50.8251 270.611 50.8337 271.007 50.9401C271.41 51.0452 271.745 51.2452 272.011 51.5399C272.283 51.8267 272.461 52.2059 272.547 52.6774C272.612 53.036 272.595 53.3786 272.497 53.7051C272.397 54.025 272.194 54.3054 271.888 54.5461L271.895 54.586C272.207 54.5293 272.462 54.5723 272.659 54.7148C272.855 54.8507 272.982 55.0747 273.038 55.3868L273.61 58.5346L272.514 58.7334L271.914 55.4263L268.198 56.1005L268.798 59.4076L267.693 59.6082ZM268.027 55.1541L270.258 54.7493C270.703 54.6685 271.039 54.4806 271.267 54.1855C271.5 53.8825 271.576 53.5053 271.494 53.0537C271.41 52.5955 271.207 52.2688 270.884 52.0737C270.567 51.8774 270.186 51.8196 269.741 51.9003L267.51 52.3052L268.027 55.1541Z" fill="white"/>
<path d="M275.629 58.1682L274.165 50.0996L275.26 49.9008L276.725 57.9694L275.629 58.1682Z" fill="white"/>
<path d="M281.572 57.2133C280.948 57.3265 280.381 57.3197 279.871 57.1927C279.359 57.0591 278.933 56.8278 278.592 56.4987C278.257 56.1617 278.026 55.7405 277.9 55.2352L279.056 55.0256C279.209 55.5327 279.494 55.8893 279.908 56.0953C280.329 56.3001 280.839 56.3482 281.437 56.2398C282.001 56.1374 282.415 55.9422 282.678 55.6544C282.94 55.3599 283.033 55.0001 282.956 54.5751C282.894 54.2364 282.734 53.9774 282.475 53.798C282.222 53.6108 281.857 53.5122 281.382 53.5024L280.055 53.4449C279.358 53.4205 278.801 53.2609 278.384 52.9662C277.967 52.6714 277.708 52.2485 277.608 51.6973C277.527 51.2524 277.566 50.8407 277.723 50.4622C277.887 50.0759 278.153 49.7497 278.523 49.4836C278.9 49.2163 279.364 49.0327 279.915 48.9327C280.48 48.8303 280.993 48.8434 281.456 48.9722C281.917 49.0943 282.307 49.3151 282.625 49.6345C282.949 49.9461 283.182 50.3428 283.325 50.8246L282.169 51.0343C281.995 50.5652 281.723 50.2373 281.353 50.0506C280.982 49.8573 280.54 49.807 280.029 49.8998C279.551 49.9866 279.186 50.166 278.933 50.4382C278.687 50.7092 278.599 51.0339 278.668 51.4124C278.722 51.7113 278.868 51.9489 279.106 52.1252C279.349 52.2937 279.708 52.3862 280.185 52.4027L281.564 52.4611C282.276 52.4898 282.834 52.656 283.239 52.9598C283.65 53.2623 283.909 53.7058 284.015 54.2902C284.148 55.0207 283.998 55.6515 283.566 56.1826C283.14 56.7058 282.475 57.0494 281.572 57.2133Z" fill="white"/>
<path d="M286.125 56.2637L284.661 48.1951L285.766 47.9945L286.464 51.8395L286.504 51.8323L289.392 47.3365L290.747 47.0907L288.049 51.1609L292.321 55.1394L290.986 55.3816L287.388 52.0526L286.668 52.9651L287.231 56.0631L286.125 56.2637Z" fill="white"/>
<path d="M114.772 132.558L112.964 122.595L114.624 122.294L116.432 132.256L114.772 132.558ZM118.749 131.836L117.41 124.456L118.996 124.168L119.204 125.312L119.253 125.303C119.392 124.855 119.63 124.485 119.967 124.196C120.312 123.904 120.739 123.713 121.247 123.62C121.788 123.522 122.284 123.568 122.733 123.757C123.189 123.937 123.574 124.236 123.886 124.653C124.199 125.071 124.41 125.579 124.519 126.177L125.329 130.642L123.705 130.937L122.949 126.767C122.843 126.185 122.613 125.757 122.258 125.482C121.91 125.198 121.474 125.104 120.949 125.199C120.424 125.294 120.045 125.537 119.811 125.926C119.575 126.308 119.51 126.79 119.616 127.372L120.372 131.541L118.749 131.836ZM129.122 129.954C128.688 130.032 128.327 129.979 128.039 129.794C127.751 129.609 127.565 129.283 127.48 128.816L126.63 124.13L125.425 124.349L125.188 123.045L126.406 122.824L126.004 120.61L127.603 120.32L128.005 122.534L129.653 122.235L129.889 123.539L128.254 123.835L129.12 128.607L130.915 128.282L131.152 129.585L129.122 129.954ZM135.65 128.922C134.961 129.047 134.322 129.002 133.732 128.787C133.149 128.562 132.654 128.191 132.247 127.672C131.838 127.144 131.562 126.487 131.419 125.7C131.278 124.921 131.303 124.222 131.496 123.603C131.687 122.975 132.012 122.459 132.472 122.054C132.941 121.647 133.511 121.382 134.183 121.26C134.806 121.147 135.39 121.19 135.934 121.387C136.485 121.575 136.952 121.91 137.336 122.391C137.719 122.872 137.979 123.485 138.114 124.231L138.23 124.871L133.065 125.808C133.241 126.454 133.536 126.934 133.949 127.248C134.368 127.553 134.848 127.657 135.39 127.559C135.783 127.487 136.098 127.333 136.335 127.095C136.578 126.848 136.714 126.548 136.743 126.195L138.403 125.894C138.397 126.42 138.276 126.895 138.039 127.319C137.802 127.735 137.479 128.082 137.072 128.359C136.665 128.636 136.191 128.823 135.65 128.922ZM132.902 124.631L136.444 123.988C136.28 123.459 136.017 123.079 135.653 122.848C135.296 122.608 134.888 122.53 134.429 122.613C133.961 122.698 133.591 122.918 133.316 123.273C133.05 123.626 132.912 124.078 132.902 124.631ZM140.621 127.867L139.282 120.488L140.844 120.204L141.092 121.569L141.141 121.56C141.226 121.096 141.421 120.701 141.726 120.374C142.031 120.048 142.434 119.84 142.934 119.749L143.512 119.644L143.773 121.083L143.121 121.201C142.465 121.32 142.01 121.61 141.755 122.072C141.5 122.533 141.433 123.1 141.555 123.772L142.245 127.573L140.621 127.867ZM149.015 126.497C148.342 126.619 147.712 126.572 147.122 126.357C146.539 126.133 146.044 125.761 145.637 125.242C145.229 124.723 144.955 124.074 144.813 123.295C144.67 122.508 144.699 121.8 144.898 121.171C145.097 120.542 145.431 120.024 145.899 119.617C146.376 119.209 146.95 118.944 147.622 118.822C148.163 118.724 148.678 118.736 149.166 118.859C149.653 118.974 150.084 119.201 150.458 119.54C150.841 119.877 151.14 120.331 151.354 120.902L149.681 121.205C149.492 120.816 149.24 120.548 148.925 120.402C148.609 120.248 148.263 120.205 147.886 120.273C147.328 120.374 146.912 120.674 146.639 121.173C146.372 121.662 146.304 122.271 146.437 123.001C146.568 123.722 146.845 124.269 147.268 124.641C147.699 125.012 148.194 125.146 148.751 125.045C149.153 124.972 149.478 124.803 149.727 124.538C149.983 124.271 150.122 123.895 150.144 123.408L151.78 123.111C151.794 123.752 151.683 124.306 151.446 124.772C151.217 125.237 150.892 125.618 150.472 125.915C150.058 126.201 149.572 126.395 149.015 126.497ZM153.595 125.513L152.256 118.133L153.88 117.839L155.219 125.218L153.595 125.513ZM152.907 117.101C152.645 117.148 152.403 117.099 152.182 116.953C151.959 116.798 151.823 116.586 151.774 116.315C151.726 116.053 151.776 115.811 151.922 115.59C152.076 115.367 152.289 115.231 152.559 115.182C152.822 115.134 153.064 115.188 153.287 115.342C153.508 115.488 153.644 115.697 153.693 115.967C153.74 116.23 153.687 116.472 153.533 116.695C153.386 116.916 153.178 117.052 152.907 117.101ZM159.087 124.516C158.653 124.595 158.292 124.542 158.004 124.357C157.716 124.172 157.53 123.846 157.445 123.379L156.595 118.693L155.39 118.912L155.153 117.608L156.371 117.387L155.969 115.173L157.568 114.883L157.97 117.097L159.618 116.798L159.854 118.101L158.218 118.398L159.084 123.17L160.88 122.845L161.117 124.148L159.087 124.516ZM162.631 126.922L162.395 125.619L164.018 125.324L164.326 123.591L159.92 116.743L161.605 116.437L164.777 121.451L164.826 121.443L165.726 115.689L167.361 115.393L165.945 123.272L165.631 124.968C165.548 125.449 165.417 125.824 165.238 126.094C165.066 126.362 164.755 126.537 164.304 126.619L162.631 126.922ZM173.512 121.899L172.173 114.52L173.735 114.236L173.983 115.601L174.032 115.592C174.117 115.128 174.312 114.733 174.617 114.406C174.922 114.08 175.324 113.872 175.825 113.781L176.403 113.676L176.664 115.115L176.012 115.233C175.356 115.352 174.9 115.642 174.645 116.104C174.39 116.565 174.324 117.132 174.446 117.804L175.135 121.605L173.512 121.899ZM179.179 120.871L177.84 113.491L179.463 113.197L180.802 120.576L179.179 120.871ZM178.491 112.459C178.228 112.506 177.986 112.457 177.765 112.311C177.542 112.156 177.406 111.944 177.357 111.673C177.31 111.411 177.359 111.169 177.505 110.948C177.66 110.725 177.872 110.589 178.143 110.54C178.405 110.492 178.648 110.546 178.87 110.7C179.092 110.846 179.227 111.055 179.276 111.325C179.324 111.587 179.27 111.83 179.116 112.053C178.97 112.274 178.761 112.409 178.491 112.459ZM185.62 119.855C184.71 120.02 183.927 119.929 183.271 119.582C182.623 119.234 182.206 118.683 182.018 117.929L183.592 117.644C183.72 118.018 183.941 118.283 184.257 118.438C184.581 118.59 184.977 118.625 185.445 118.54C185.863 118.464 186.164 118.329 186.349 118.134C186.541 117.93 186.609 117.676 186.554 117.373C186.472 116.922 186.108 116.687 185.461 116.669L184.118 116.621C182.713 116.579 181.915 116.034 181.725 114.984C181.602 114.304 181.756 113.708 182.189 113.198C182.629 112.686 183.264 112.355 184.092 112.204C184.92 112.054 185.64 112.148 186.252 112.486C186.862 112.816 187.257 113.337 187.437 114.049L185.875 114.333C185.738 113.994 185.529 113.752 185.248 113.608C184.967 113.456 184.629 113.415 184.236 113.487C183.883 113.551 183.614 113.68 183.429 113.875C183.243 114.061 183.174 114.289 183.223 114.56C183.262 114.773 183.363 114.933 183.526 115.038C183.696 115.135 183.939 115.188 184.254 115.199L185.634 115.24C186.333 115.266 186.882 115.421 187.28 115.704C187.686 115.978 187.94 116.401 188.045 116.975C188.175 117.697 188.025 118.317 187.594 118.836C187.163 119.354 186.505 119.694 185.62 119.855ZM195.401 120.976L194.664 116.918L194.615 116.927C194.357 117.837 193.715 118.386 192.691 118.572C192.076 118.683 191.509 118.621 190.992 118.384C190.475 118.148 190.037 117.766 189.679 117.238C189.319 116.702 189.07 116.052 188.932 115.29C188.792 114.519 188.797 113.824 188.947 113.204C189.097 112.584 189.373 112.072 189.774 111.669C190.175 111.266 190.683 111.008 191.298 110.897C192.331 110.709 193.139 111.007 193.722 111.791L193.771 111.782L193.563 110.638L195.15 110.35L197.024 120.682L195.401 120.976ZM192.86 117.054C193.416 116.945 193.818 116.686 194.065 116.277C194.313 115.868 194.383 115.368 194.276 114.778L194.115 113.892C194.008 113.302 193.767 112.858 193.391 112.562C193.014 112.258 192.547 112.157 191.99 112.258C191.424 112.36 191.008 112.66 190.743 113.157C190.485 113.653 190.423 114.266 190.555 114.995C190.688 115.725 190.961 116.277 191.376 116.65C191.8 117.022 192.294 117.157 192.86 117.054ZM201.211 117.013C200.678 117.11 200.188 117.071 199.742 116.898C199.294 116.717 198.915 116.426 198.605 116.025C198.302 115.614 198.096 115.113 197.989 114.523L197.166 109.985L198.789 109.69L199.553 113.896C199.657 114.47 199.878 114.896 200.216 115.173C200.553 115.443 200.976 115.531 201.484 115.439C202.009 115.344 202.396 115.1 202.647 114.707C202.904 114.304 202.982 113.82 202.879 113.255L202.122 109.085L203.746 108.791L205.085 116.17L203.498 116.458L203.277 115.24L203.228 115.249C203.102 115.721 202.868 116.111 202.526 116.419C202.182 116.718 201.744 116.916 201.211 117.013ZM210.295 115.377C209.606 115.502 208.967 115.457 208.378 115.242C207.795 115.018 207.3 114.646 206.892 114.127C206.483 113.6 206.207 112.943 206.064 112.156C205.923 111.377 205.949 110.678 206.141 110.058C206.332 109.431 206.658 108.914 207.118 108.509C207.586 108.102 208.156 107.838 208.829 107.716C209.452 107.603 210.035 107.645 210.579 107.843C211.13 108.031 211.597 108.365 211.981 108.846C212.365 109.327 212.624 109.941 212.76 110.687L212.876 111.326L207.71 112.264C207.887 112.909 208.181 113.389 208.594 113.704C209.014 114.009 209.494 114.112 210.035 114.014C210.429 113.943 210.744 113.788 210.98 113.551C211.223 113.303 211.359 113.003 211.388 112.651L213.049 112.349C213.043 112.876 212.921 113.351 212.685 113.775C212.447 114.191 212.124 114.537 211.717 114.814C211.31 115.091 210.836 115.279 210.295 115.377ZM207.547 111.086L211.089 110.444C210.926 109.914 210.662 109.535 210.298 109.304C209.941 109.064 209.533 108.986 209.074 109.069C208.607 109.154 208.236 109.373 207.961 109.728C207.695 110.081 207.557 110.534 207.547 111.086ZM221.869 113.277C221.18 113.402 220.541 113.357 219.951 113.142C219.369 112.918 218.873 112.546 218.466 112.027C218.057 111.5 217.781 110.843 217.638 110.056C217.497 109.277 217.522 108.578 217.715 107.958C217.906 107.331 218.231 106.814 218.692 106.409C219.16 106.002 219.73 105.738 220.402 105.616C221.026 105.503 221.609 105.545 222.153 105.743C222.704 105.931 223.171 106.265 223.555 106.746C223.939 107.227 224.198 107.841 224.333 108.587L224.45 109.226L219.284 110.164C219.46 110.809 219.755 111.289 220.168 111.604C220.587 111.909 221.068 112.012 221.609 111.914C222.002 111.843 222.317 111.688 222.554 111.451C222.797 111.203 222.933 110.903 222.962 110.551L224.622 110.249C224.616 110.776 224.495 111.251 224.259 111.675C224.021 112.091 223.698 112.437 223.291 112.714C222.884 112.991 222.41 113.179 221.869 113.277ZM219.121 108.986L222.663 108.344C222.499 107.814 222.236 107.434 221.872 107.204C221.515 106.964 221.107 106.885 220.648 106.969C220.181 107.054 219.81 107.273 219.535 107.628C219.269 107.981 219.131 108.434 219.121 108.986ZM219.163 105.015L219.154 104.966L220.085 102.536L221.954 102.196L221.963 102.246L220.43 104.785L219.163 105.015ZM226.742 112.241L224.867 101.909L226.491 101.615L228.365 111.946L226.742 112.241ZM233.601 111.148C232.912 111.273 232.273 111.228 231.684 111.014C231.101 110.789 230.606 110.417 230.198 109.898C229.789 109.371 229.513 108.714 229.37 107.927C229.229 107.148 229.255 106.449 229.447 105.83C229.638 105.202 229.964 104.686 230.424 104.28C230.892 103.873 231.462 103.609 232.135 103.487C232.758 103.374 233.341 103.416 233.885 103.614C234.436 103.802 234.903 104.137 235.287 104.617C235.671 105.098 235.93 105.712 236.066 106.458L236.182 107.098L231.016 108.035C231.193 108.68 231.487 109.16 231.9 109.475C232.319 109.78 232.8 109.884 233.341 109.785C233.735 109.714 234.05 109.559 234.286 109.322C234.529 109.074 234.665 108.774 234.694 108.422L236.355 108.121C236.349 108.647 236.227 109.122 235.991 109.546C235.753 109.962 235.43 110.308 235.023 110.585C234.616 110.862 234.142 111.05 233.601 111.148ZM230.853 106.857L234.395 106.215C234.232 105.685 233.968 105.306 233.604 105.075C233.247 104.835 232.839 104.757 232.38 104.84C231.913 104.925 231.542 105.145 231.267 105.499C231.001 105.852 230.863 106.305 230.853 106.857ZM240.111 109.815L235.906 102.955L237.591 102.649L240.652 107.824L240.701 107.815L241.711 101.902L243.347 101.605L241.82 109.504L240.111 109.815ZM248.706 108.408C248.017 108.533 247.378 108.488 246.789 108.273C246.206 108.048 245.711 107.676 245.303 107.158C244.894 106.63 244.618 105.973 244.475 105.186C244.334 104.407 244.36 103.708 244.552 103.089C244.743 102.461 245.069 101.945 245.529 101.539C245.997 101.133 246.567 100.868 247.24 100.746C247.863 100.633 248.446 100.676 248.99 100.873C249.541 101.061 250.008 101.396 250.392 101.877C250.776 102.357 251.035 102.971 251.171 103.717L251.287 104.357L246.121 105.294C246.297 105.94 246.592 106.42 247.005 106.734C247.424 107.039 247.905 107.143 248.446 107.045C248.839 106.973 249.154 106.819 249.391 106.581C249.634 106.334 249.77 106.034 249.799 105.681L251.46 105.38C251.453 105.906 251.332 106.381 251.096 106.805C250.858 107.221 250.535 107.567 250.128 107.845C249.721 108.122 249.247 108.309 248.706 108.408ZM245.958 104.117L249.5 103.474C249.337 102.945 249.073 102.565 248.709 102.334C248.352 102.094 247.944 102.016 247.485 102.099C247.018 102.184 246.647 102.404 246.372 102.758C246.106 103.112 245.968 103.564 245.958 104.117ZM246 100.145L245.991 100.096L246.922 97.666L248.791 97.3268L248.8 97.376L247.267 99.9156L246 100.145Z" fill="black"/>
<g clip-path="url(#clip0_447_1526)">
<path d="M80.4971 125.056C80.2013 123.426 81.2831 121.865 82.9133 121.569L99.6402 118.534C101.27 118.238 102.832 119.32 103.128 120.95L106.094 137.298C106.39 138.929 105.308 140.49 103.678 140.786L95.5307 142.264L86.9509 143.821C85.3207 144.117 83.7593 143.035 83.4635 141.405L80.4971 125.056Z" fill="#EB0000"/>
<path d="M87.3712 128.421L90.1606 127.915L88.0566 135.959L85.2561 136.468L87.3712 128.421ZM91.9971 127.581L101.894 125.785L101.27 128.175L94.2017 129.457L93.3443 132.724L100.416 131.441L99.7911 133.83L89.893 135.626L91.9971 127.581Z" fill="white"/>
</g>
<path fill-rule="evenodd" clip-rule="evenodd" d="M91.2036 169.279C90.3374 164.505 93.505 159.933 98.2788 159.067C103.053 158.201 107.625 161.368 108.491 166.142C109.357 170.916 106.189 175.488 101.416 176.354C96.6418 177.22 92.0698 174.053 91.2036 169.279ZM98.1647 158.438C93.044 159.367 89.6458 164.272 90.575 169.393C91.5041 174.514 96.4088 177.912 101.53 176.983C106.65 176.054 110.049 171.149 109.119 166.028C108.19 160.907 103.285 157.509 98.1647 158.438ZM99.1349 161.996L100.333 168.596L99.704 168.71L98.5063 162.11L99.1349 161.996ZM100.388 172.482L100.046 170.596L100.675 170.482L101.017 172.368L100.388 172.482Z" fill="black" stroke="black" stroke-width="0.7"/>
<path d="M118.453 170.002L118.245 168.858L120.631 168.425L119.31 161.144L117.149 163.518L117.1 163.527L116.848 162.137L119.203 159.575L120.359 159.366L121.96 168.184L124.013 167.811L124.221 168.955L118.453 170.002ZM130.208 167.869L129.775 165.483L125.052 166.34L124.873 165.356L128.425 157.902L129.692 157.672L130.861 164.117L132.275 163.86L132.481 164.992L131.066 165.249L131.499 167.635L130.208 167.869ZM126.2 164.963L129.619 164.342L128.764 159.632L128.715 159.641L126.2 164.963ZM141.528 165.967C140.758 166.107 140.057 166.099 139.428 165.942C138.796 165.777 138.27 165.491 137.849 165.085C137.435 164.669 137.15 164.149 136.994 163.525L138.421 163.266C138.611 163.892 138.962 164.333 139.474 164.587C139.994 164.84 140.623 164.899 141.361 164.765C142.058 164.639 142.569 164.398 142.894 164.043C143.218 163.679 143.332 163.235 143.237 162.71C143.161 162.292 142.963 161.972 142.643 161.751C142.33 161.519 141.881 161.398 141.294 161.386L139.655 161.315C138.794 161.284 138.106 161.087 137.591 160.723C137.076 160.36 136.757 159.837 136.634 159.157C136.534 158.607 136.582 158.099 136.776 157.632C136.978 157.155 137.307 156.752 137.764 156.424C138.229 156.094 138.802 155.867 139.483 155.743C140.18 155.617 140.814 155.633 141.384 155.792C141.954 155.943 142.435 156.215 142.829 156.61C143.229 156.995 143.517 157.484 143.692 158.079L142.266 158.338C142.05 157.759 141.714 157.354 141.258 157.124C140.799 156.885 140.254 156.823 139.623 156.937C139.033 157.045 138.582 157.266 138.27 157.602C137.967 157.937 137.857 158.338 137.942 158.805C138.009 159.174 138.189 159.467 138.483 159.685C138.783 159.893 139.227 160.007 139.815 160.028L141.518 160.1C142.397 160.135 143.086 160.34 143.586 160.716C144.094 161.089 144.414 161.637 144.545 162.358C144.709 163.26 144.524 164.039 143.991 164.695C143.464 165.341 142.643 165.765 141.528 165.967ZM146.965 164.828L145.626 157.449L146.954 157.208L148.293 164.587L146.965 164.828ZM146.107 156.32C145.878 156.361 145.666 156.315 145.472 156.181C145.278 156.047 145.161 155.865 145.119 155.635C145.077 155.406 145.124 155.194 145.258 155C145.392 154.807 145.574 154.689 145.804 154.647C146.033 154.605 146.245 154.652 146.439 154.786C146.632 154.92 146.75 155.102 146.792 155.332C146.833 155.561 146.787 155.773 146.653 155.967C146.519 156.16 146.337 156.278 146.107 156.32ZM154.04 166.746C153.13 166.911 152.331 166.828 151.644 166.495C150.958 166.17 150.5 165.652 150.269 164.94L151.684 164.684C151.837 165.062 152.102 165.332 152.478 165.492C152.855 165.653 153.297 165.687 153.805 165.594C154.461 165.475 154.94 165.194 155.24 164.75C155.549 164.304 155.644 163.757 155.527 163.11L155.31 161.917L155.261 161.926C155.16 162.393 154.938 162.78 154.596 163.088C154.26 163.386 153.834 163.582 153.317 163.676C152.694 163.789 152.117 163.733 151.585 163.507C151.059 163.272 150.614 162.896 150.249 162.378C149.884 161.86 149.634 161.227 149.498 160.481C149.363 159.735 149.375 159.055 149.535 158.442C149.694 157.829 149.98 157.324 150.391 156.927C150.808 156.521 151.328 156.262 151.952 156.149C152.468 156.055 152.937 156.093 153.357 156.262C153.784 156.422 154.126 156.698 154.384 157.092L154.433 157.083L154.217 155.89L155.533 155.651L156.854 162.932C157.033 163.916 156.866 164.751 156.356 165.437C155.853 166.121 155.081 166.557 154.04 166.746ZM153.418 162.412C154.001 162.307 154.43 162.034 154.706 161.594C154.982 161.155 155.063 160.623 154.95 160L154.771 159.016C154.658 158.393 154.391 157.925 153.97 157.612C153.557 157.297 153.064 157.192 152.49 157.296C151.842 157.413 151.368 157.741 151.068 158.278C150.766 158.807 150.685 159.461 150.827 160.24C150.968 161.019 151.274 161.607 151.744 162.005C152.213 162.394 152.771 162.53 153.418 162.412ZM159.107 162.625L157.768 155.246L159.084 155.007L159.301 156.2L159.35 156.191C159.486 155.726 159.726 155.344 160.069 155.044C160.413 154.745 160.847 154.547 161.372 154.452C161.905 154.355 162.4 154.401 162.858 154.589C163.314 154.769 163.698 155.063 164.009 155.473C164.32 155.882 164.529 156.378 164.635 156.96L165.454 161.474L164.125 161.715L163.349 157.435C163.234 156.803 162.98 156.337 162.587 156.036C162.201 155.733 161.718 155.634 161.136 155.74C160.553 155.846 160.131 156.109 159.869 156.529C159.614 156.948 159.544 157.473 159.659 158.104L160.436 162.384L159.107 162.625ZM169.571 160.866C168.841 160.999 168.209 160.902 167.676 160.575C167.149 160.239 166.826 159.742 166.707 159.087C166.58 158.39 166.708 157.807 167.089 157.34C167.477 156.863 168.089 156.549 168.925 156.397L171.077 156.007L171.01 155.638C170.912 155.097 170.689 154.705 170.34 154.464C169.998 154.212 169.565 154.134 169.04 154.229C168.605 154.308 168.263 154.476 168.013 154.733C167.77 154.981 167.637 155.297 167.614 155.682L166.261 155.928C166.254 155.192 166.485 154.57 166.951 154.062C167.418 153.554 168.053 153.227 168.857 153.081C169.767 152.916 170.521 153.033 171.118 153.433C171.724 153.831 172.108 154.477 172.27 155.371L173.125 160.082L171.871 160.309L171.639 159.03L171.589 159.039C171.48 159.508 171.243 159.907 170.879 160.235C170.515 160.564 170.079 160.774 169.571 160.866ZM169.64 159.71C170.026 159.64 170.354 159.488 170.624 159.252C170.903 159.015 171.105 158.729 171.231 158.393C171.355 158.048 171.382 157.688 171.314 157.31L171.26 157.015L169.194 157.39C168.718 157.477 168.372 157.645 168.155 157.896C167.945 158.138 167.873 158.439 167.938 158.8C168.003 159.16 168.191 159.423 168.5 159.587C168.809 159.751 169.189 159.792 169.64 159.71ZM175.344 159.679L173.47 149.348L174.798 149.107L176.673 159.438L175.344 159.679ZM182.031 158.618C181.367 158.739 180.744 158.691 180.163 158.474C179.58 158.25 179.085 157.878 178.677 157.359C178.277 156.831 178.005 156.173 177.862 155.386C177.721 154.607 177.746 153.907 177.939 153.288C178.13 152.661 178.451 152.145 178.903 151.741C179.355 151.337 179.909 151.076 180.565 150.957C181.18 150.845 181.75 150.886 182.276 151.078C182.811 151.269 183.265 151.602 183.639 152.076C184.013 152.55 184.265 153.144 184.394 153.857L184.501 154.448L179.188 155.412C179.373 156.149 179.702 156.703 180.176 157.075C180.65 157.446 181.194 157.576 181.809 157.464C182.252 157.384 182.609 157.205 182.88 156.927C183.152 156.649 183.306 156.308 183.342 155.903L184.695 155.657C184.688 156.175 184.569 156.642 184.339 157.056C184.108 157.462 183.797 157.802 183.406 158.076C183.014 158.342 182.556 158.523 182.031 158.618ZM179.066 154.392L183.027 153.673C182.859 153.077 182.573 152.642 182.167 152.368C181.762 152.095 181.293 152.006 180.76 152.103C180.235 152.198 179.824 152.451 179.525 152.86C179.226 153.262 179.073 153.773 179.066 154.392ZM186.953 157.573L185.614 150.193L186.918 149.956L187.135 151.149L187.184 151.141C187.293 150.672 187.509 150.294 187.829 150.007C188.157 149.711 188.566 149.518 189.058 149.428C189.558 149.338 190.023 149.38 190.453 149.556C190.89 149.723 191.252 150.013 191.539 150.427L191.576 150.42C191.74 149.924 191.997 149.522 192.347 149.213C192.696 148.895 193.129 148.69 193.646 148.596C194.171 148.501 194.656 148.54 195.102 148.713C195.547 148.878 195.917 149.162 196.21 149.566C196.512 149.969 196.717 150.469 196.826 151.068L197.654 155.631L196.325 155.872L195.533 151.506C195.421 150.891 195.188 150.442 194.831 150.159C194.474 149.869 194.033 149.771 193.508 149.866C192.991 149.96 192.612 150.206 192.372 150.606C192.129 150.997 192.064 151.5 192.175 152.115L192.968 156.481L191.639 156.722L190.847 152.356C190.735 151.741 190.498 151.293 190.133 151.012C189.775 150.721 189.334 150.623 188.809 150.718C188.293 150.812 187.914 151.059 187.673 151.458C187.439 151.848 187.378 152.35 187.489 152.965L188.282 157.331L186.953 157.573ZM202.916 154.829C202.251 154.949 201.629 154.901 201.047 154.685C200.465 154.46 199.969 154.089 199.562 153.57C199.161 153.041 198.889 152.383 198.747 151.596C198.605 150.817 198.631 150.118 198.823 149.499C199.014 148.871 199.336 148.355 199.788 147.952C200.239 147.548 200.793 147.286 201.449 147.167C202.064 147.056 202.635 147.096 203.161 147.289C203.695 147.48 204.149 147.812 204.523 148.286C204.897 148.761 205.149 149.354 205.279 150.068L205.386 150.658L200.072 151.622C200.257 152.359 200.586 152.914 201.06 153.285C201.534 153.656 202.079 153.786 202.694 153.675C203.136 153.594 203.493 153.415 203.765 153.137C204.036 152.859 204.19 152.518 204.227 152.113L205.58 151.868C205.572 152.386 205.454 152.852 205.224 153.266C204.993 153.673 204.682 154.013 204.291 154.287C203.899 154.553 203.44 154.733 202.916 154.829ZM199.951 150.602L203.911 149.884C203.744 149.288 203.457 148.853 203.052 148.579C202.647 148.305 202.177 148.217 201.644 148.313C201.12 148.409 200.708 148.661 200.41 149.071C200.11 149.473 199.957 149.983 199.951 150.602ZM207.838 153.783L206.499 146.403L207.815 146.165L208.031 147.358L208.081 147.349C208.216 146.884 208.456 146.501 208.8 146.202C209.144 145.902 209.578 145.705 210.103 145.61C210.636 145.513 211.131 145.559 211.588 145.747C212.045 145.927 212.428 146.221 212.74 146.63C213.051 147.04 213.26 147.535 213.365 148.118L214.184 152.631L212.856 152.872L212.079 148.592C211.965 147.961 211.711 147.495 211.317 147.193C210.932 146.891 210.448 146.792 209.866 146.898C209.284 147.003 208.862 147.266 208.599 147.687C208.345 148.105 208.275 148.631 208.39 149.262L209.166 153.542L207.838 153.783ZM217.932 151.951C217.555 152.02 217.242 151.975 216.993 151.817C216.743 151.651 216.581 151.366 216.508 150.965L215.58 145.848L214.326 146.076L214.134 145.018L215.4 144.788L214.999 142.574L216.302 142.338L216.704 144.552L218.463 144.233L218.655 145.29L216.908 145.607L217.864 150.871L219.782 150.523L219.974 151.581L217.932 151.951ZM223.947 151.013C223.061 151.173 222.3 151.087 221.664 150.753C221.034 150.41 220.628 149.874 220.444 149.145L221.748 148.909C221.883 149.325 222.127 149.619 222.48 149.792C222.832 149.957 223.27 149.992 223.795 149.897C224.279 149.809 224.631 149.648 224.851 149.413C225.071 149.178 225.149 148.889 225.087 148.544C224.989 148.003 224.552 147.722 223.778 147.702L222.511 147.652C221.132 147.615 220.349 147.079 220.162 146.046C220.043 145.39 220.193 144.817 220.612 144.325C221.029 143.826 221.636 143.504 222.431 143.36C223.218 143.217 223.904 143.309 224.488 143.635C225.079 143.951 225.471 144.456 225.665 145.149L224.386 145.381C224.234 145.011 224 144.748 223.684 144.594C223.375 144.43 223.003 144.387 222.568 144.466C222.15 144.542 221.834 144.692 221.621 144.917C221.408 145.142 221.329 145.411 221.386 145.722C221.431 145.968 221.553 146.153 221.754 146.278C221.953 146.394 222.248 146.459 222.64 146.473L223.917 146.508C224.616 146.534 225.161 146.689 225.551 146.974C225.948 147.249 226.197 147.661 226.297 148.21C226.425 148.916 226.28 149.522 225.864 150.029C225.447 150.529 224.808 150.856 223.947 151.013Z" fill="black"/>
</g>
<defs>
<filter id="filter0_dddd_447_1526" x="-3.01562" y="-3.008" width="388.559" height="275.252" filterUnits="userSpaceOnUse" color-interpolation-filters="sRGB">
<feFlood flood-opacity="0" result="BackgroundImageFix"/>
<feColorMatrix in="SourceAlpha" type="matrix" values="0 0 0 0 0 0 0 0 0 0 0 0 0 0 0 0 0 0 127 0" result="hardAlpha"/>
<feOffset dx="-2" dy="3"/>
<feGaussianBlur stdDeviation="4.5"/>
<feColorMatrix type="matrix" values="0 0 0 0 0 0 0 0 0 0 0 0 0 0 0 0 0 0 0.09 0"/>
<feBlend mode="normal" in2="BackgroundImageFix" result="effect1_dropShadow_447_1526"/>
<feColorMatrix in="SourceAlpha" type="matrix" values="0 0 0 0 0 0 0 0 0 0 0 0 0 0 0 0 0 0 127 0" result="hardAlpha"/>
<feOffset dx="-8" dy="14"/>
<feGaussianBlur stdDeviation="8"/>
<feColorMatrix type="matrix" values="0 0 0 0 0 0 0 0 0 0 0 0 0 0 0 0 0 0 0.08 0"/>
<feBlend mode="normal" in2="effect1_dropShadow_447_1526" result="effect2_dropShadow_447_1526"/>
<feColorMatrix in="SourceAlpha" type="matrix" values="0 0 0 0 0 0 0 0 0 0 0 0 0 0 0 0 0 0 127 0" result="hardAlpha"/>
<feOffset dx="-17" dy="31"/>
<feGaussianBlur stdDeviation="10.5"/>
<feColorMatrix type="matrix" values="0 0 0 0 0 0 0 0 0 0 0 0 0 0 0 0 0 0 0.05 0"/>
<feBlend mode="normal" in2="effect2_dropShadow_447_1526" result="effect3_dropShadow_447_1526"/>
<feColorMatrix in="SourceAlpha" type="matrix" values="0 0 0 0 0 0 0 0 0 0 0 0 0 0 0 0 0 0 127 0" result="hardAlpha"/>
<feOffset dx="-31" dy="55"/>
<feGaussianBlur stdDeviation="12.5"/>
<feColorMatrix type="matrix" values="0 0 0 0 0 0 0 0 0 0 0 0 0 0 0 0 0 0 0.01 0"/>
<feBlend mode="normal" in2="effect3_dropShadow_447_1526" result="effect4_dropShadow_447_1526"/>
<feBlend mode="normal" in="SourceGraphic" in2="effect4_dropShadow_447_1526" result="shape"/>
</filter>
<clipPath id="clip0_447_1526">
<rect width="23" height="23" fill="white" transform="translate(79.9617 122.104) rotate(-10.2844)"/>
</clipPath>
</defs>
</svg>
