<svg width="150" height="175" viewBox="0 0 150 175" fill="none" xmlns="http://www.w3.org/2000/svg">
<g filter="url(#filter0_dddd_447_1525)">
<rect x="67.2954" y="2.88318" width="78" height="83" rx="21" transform="rotate(9.53714 67.2954 2.88318)" fill="#FFFDFD"/>
<rect x="67.7057" y="3.45911" width="77" height="82" rx="20.5" transform="rotate(9.53714 67.7057 3.45911)" stroke="black"/>
<path fill-rule="evenodd" clip-rule="evenodd" d="M90.367 27.6095C91.7859 27.8479 93.1288 26.9219 93.36 25.5456C93.5912 24.1693 92.6247 22.8554 91.2058 22.617C89.7868 22.3786 88.444 23.3046 88.2127 24.6808C87.9815 26.0571 88.9481 27.3711 90.367 27.6095ZM85.798 28.553L84.1204 38.5381L85.8362 38.8263L84.1586 48.8114L89.3059 49.6762L90.9834 39.6911L92.6992 39.9794L94.3768 29.9943L85.798 28.553ZM102.384 29.6285C103.803 29.8669 105.146 28.9409 105.377 27.5646C105.608 26.1883 104.64 24.8741 103.223 24.636C101.806 24.3978 100.461 25.3235 100.23 26.6998C99.9987 28.0761 100.965 29.3901 102.384 29.6285ZM97.8152 30.572L96.1376 40.5571L97.8533 40.8453L96.1758 50.8304L101.323 51.6952L103.001 41.7101L104.716 41.9984L106.394 32.0133L97.8152 30.572Z" fill="black"/>
<path fill-rule="evenodd" clip-rule="evenodd" d="M114.332 31.6358C115.751 31.8742 117.094 30.9482 117.325 29.572C117.556 28.1957 116.59 26.8817 115.171 26.6433C113.752 26.4049 112.409 27.3309 112.178 28.7072C111.947 30.0835 112.913 31.3974 114.332 31.6358ZM109.763 32.5794L108.086 42.5644L109.801 42.8527L108.124 52.8377L113.271 53.7025L114.949 43.7175L116.664 44.0057L118.342 34.0207L109.763 32.5794Z" fill="black"/>
<rect x="65.6659" y="54.8306" width="64" height="16.0012" rx="4" transform="rotate(9.53714 65.6659 54.8306)" fill="#1BE900"/>
<path d="M66.5064 66.6155L67.7907 58.9718L68.8381 59.1477L67.7093 65.8667L71.4462 66.4945L71.2909 67.4193L66.5064 66.6155Z" fill="white"/>
<path d="M75.2811 68.2062C74.608 68.0931 74.0341 67.8317 73.5596 67.4221C73.0861 67.0061 72.7475 66.4803 72.5438 65.8445C72.3412 65.2024 72.307 64.4818 72.4412 63.6828C72.5765 62.8776 72.8443 62.2078 73.2446 61.6734C73.6459 61.1328 74.1378 60.7465 74.7201 60.5144C75.3025 60.2823 75.9302 60.2228 76.6034 60.3359C77.2828 60.4501 77.8598 60.712 78.3344 61.1216C78.81 61.525 79.146 62.0472 79.3423 62.6882C79.546 63.324 79.5796 64.0477 79.4433 64.8593C79.309 65.6582 79.0413 66.328 78.6399 66.8687C78.2386 67.4093 77.7468 67.7956 77.1644 68.0277C76.5883 68.2608 75.9606 68.3203 75.2811 68.2062ZM75.4397 67.2625C75.9367 67.346 76.3882 67.2957 76.7943 67.1117C77.2078 66.9224 77.5495 66.6208 77.8196 66.2069C78.097 65.7877 78.2859 65.2793 78.3864 64.6817C78.4878 64.0777 78.4754 63.5355 78.3492 63.055C78.2302 62.5693 78.0058 62.1726 77.6758 61.8649C77.3522 61.5582 76.9418 61.3631 76.4448 61.2796C75.9478 61.1961 75.4963 61.2464 75.0902 61.4304C74.6841 61.6145 74.3423 61.9161 74.0649 62.3352C73.7885 62.7481 73.5996 63.2565 73.4981 63.8604C73.3977 64.4581 73.4101 65.0003 73.5353 65.4871C73.6616 65.9676 73.8861 66.3643 74.2087 66.6773C74.5323 66.9839 74.9427 67.179 75.4397 67.2625Z" fill="white"/>
<path d="M81.2277 69.0888L80.5491 61.1153L81.6532 61.3008L82.0459 67.7417L82.0837 67.748L84.7862 61.8272L85.8242 62.0016L86.5284 68.4948L86.5661 68.5011L89.0327 62.5406L90.1368 62.7261L86.8898 70.0401L85.7762 69.853L85.0832 63.2937L85.0454 63.2874L82.3413 69.2759L81.2277 69.0888Z" fill="white"/>
<path d="M96.0604 71.707C95.3683 71.5907 94.7856 71.3246 94.3121 70.9087C93.8459 70.4875 93.5147 69.9564 93.3184 69.3154C93.1283 68.6754 93.0994 67.9622 93.2315 67.1758C93.3626 66.3957 93.6225 65.7343 94.0112 65.1915C94.4063 64.6498 94.8923 64.2593 95.4695 64.0199C96.0539 63.7752 96.6922 63.711 97.3842 63.8273C97.9253 63.9182 98.3928 64.1003 98.7867 64.3734C99.1818 64.6403 99.4834 64.9821 99.6915 65.3987C99.907 65.8101 100.013 66.2775 100.009 66.8008L98.9238 66.6185C98.9255 66.1465 98.7734 65.7426 98.4676 65.4066C98.1681 65.0716 97.7541 64.8598 97.2257 64.771C96.735 64.6885 96.2829 64.742 95.8694 64.9312C95.4633 65.1153 95.1221 65.4137 94.8457 65.8266C94.5756 66.2405 94.3899 66.7494 94.2884 67.3534C94.1869 67.9573 94.1962 68.499 94.3162 68.9785C94.4424 69.4589 94.6669 69.8557 94.9895 70.1686C95.3195 70.4763 95.7298 70.6714 96.2205 70.7539C96.7489 70.8426 97.2094 70.7777 97.602 70.559C98.0008 70.3414 98.276 70.0124 98.4276 69.5722L99.5128 69.7545C99.3464 70.244 99.0937 70.6512 98.7545 70.9758C98.4227 71.2953 98.026 71.5197 97.5644 71.6492C97.1027 71.7786 96.6014 71.7979 96.0604 71.707Z" fill="white"/>
<path d="M100.49 72.325L101.774 64.6813L105.039 65.2298C105.505 65.308 105.897 65.458 106.215 65.6797C106.54 65.9025 106.773 66.1875 106.916 66.5348C107.065 66.8769 107.102 67.2713 107.027 67.718C106.97 68.0577 106.846 68.3569 106.653 68.6157C106.462 68.8682 106.192 69.0525 105.842 69.1684L105.836 69.2062C106.132 69.2558 106.345 69.3757 106.474 69.5657C106.605 69.7494 106.646 69.9891 106.596 70.2847L106.095 73.2668L105.057 73.0924L105.583 69.9594L102.064 69.368L101.537 72.501L100.49 72.325ZM102.214 68.4715L104.328 68.8266C104.749 68.8975 105.109 68.8381 105.406 68.6487C105.71 68.454 105.898 68.1428 105.97 67.715C106.043 67.2809 105.967 66.9253 105.742 66.6481C105.523 66.372 105.203 66.1986 104.781 66.1277L102.668 65.7726L102.214 68.4715Z" fill="white"/>
<path d="M108.985 73.7523L108.306 65.7788L109.41 65.9643L109.803 72.4052L109.841 72.4115L112.543 66.4906L113.581 66.665L114.286 73.1583L114.323 73.1646L116.79 67.2041L117.894 67.3896L114.647 74.7035L113.533 74.5165L112.84 67.9572L112.803 67.9508L110.098 73.9394L108.985 73.7523Z" fill="white"/>
<path d="M117.973 75.2624L119.258 67.6187L121.655 68.0214C122.416 68.1493 123.054 68.4149 123.568 68.8183C124.082 69.2217 124.446 69.7355 124.658 70.3598C124.87 70.9841 124.91 71.6895 124.778 72.4758C124.647 73.2559 124.376 73.9058 123.965 74.4255C123.561 74.9462 123.049 75.3162 122.43 75.5357C121.818 75.7499 121.132 75.793 120.37 75.6651L117.973 75.2624ZM119.176 74.5136L120.526 74.7403C121.111 74.8386 121.625 74.8021 122.068 74.6306C122.511 74.4529 122.874 74.1645 123.154 73.7653C123.435 73.3661 123.624 72.8771 123.721 72.2983C123.868 71.4238 123.753 70.6832 123.376 70.0766C123.006 69.4709 122.38 69.0942 121.499 68.9462L120.15 68.7195L119.176 74.5136Z" fill="white"/>
</g>
<defs>
<filter id="filter0_dddd_447_1525" x="-2.45654" y="-3.11682" width="154.674" height="180.776" filterUnits="userSpaceOnUse" color-interpolation-filters="sRGB">
<feFlood flood-opacity="0" result="BackgroundImageFix"/>
<feColorMatrix in="SourceAlpha" type="matrix" values="0 0 0 0 0 0 0 0 0 0 0 0 0 0 0 0 0 0 127 0" result="hardAlpha"/>
<feOffset dx="-2" dy="3"/>
<feGaussianBlur stdDeviation="4.5"/>
<feColorMatrix type="matrix" values="0 0 0 0 0 0 0 0 0 0 0 0 0 0 0 0 0 0 0.09 0"/>
<feBlend mode="normal" in2="BackgroundImageFix" result="effect1_dropShadow_447_1525"/>
<feColorMatrix in="SourceAlpha" type="matrix" values="0 0 0 0 0 0 0 0 0 0 0 0 0 0 0 0 0 0 127 0" result="hardAlpha"/>
<feOffset dx="-8" dy="14"/>
<feGaussianBlur stdDeviation="8"/>
<feColorMatrix type="matrix" values="0 0 0 0 0 0 0 0 0 0 0 0 0 0 0 0 0 0 0.08 0"/>
<feBlend mode="normal" in2="effect1_dropShadow_447_1525" result="effect2_dropShadow_447_1525"/>
<feColorMatrix in="SourceAlpha" type="matrix" values="0 0 0 0 0 0 0 0 0 0 0 0 0 0 0 0 0 0 127 0" result="hardAlpha"/>
<feOffset dx="-17" dy="31"/>
<feGaussianBlur stdDeviation="10.5"/>
<feColorMatrix type="matrix" values="0 0 0 0 0 0 0 0 0 0 0 0 0 0 0 0 0 0 0.05 0"/>
<feBlend mode="normal" in2="effect2_dropShadow_447_1525" result="effect3_dropShadow_447_1525"/>
<feColorMatrix in="SourceAlpha" type="matrix" values="0 0 0 0 0 0 0 0 0 0 0 0 0 0 0 0 0 0 127 0" result="hardAlpha"/>
<feOffset dx="-31" dy="55"/>
<feGaussianBlur stdDeviation="12.5"/>
<feColorMatrix type="matrix" values="0 0 0 0 0 0 0 0 0 0 0 0 0 0 0 0 0 0 0.01 0"/>
<feBlend mode="normal" in2="effect3_dropShadow_447_1525" result="effect4_dropShadow_447_1525"/>
<feBlend mode="normal" in="SourceGraphic" in2="effect4_dropShadow_447_1525" result="shape"/>
</filter>
</defs>
</svg>
