<svg width="124" height="120" viewBox="0 0 124 120" fill="none" xmlns="http://www.w3.org/2000/svg">
    <path d="M83.4476 119.644H82.464C82.0198 119.599 81.2873 119.349 81.1115 118.899C76.2673 106.493 71.484 94.0768 66.8216 81.6016C66.5797 80.9549 67.4364 79.6765 68.1034 79.4903C75.1984 76.4781 79.9242 70.3686 80.0393 62.4698C80.2277 49.5438 66.6008 40.3072 54.6775 45.4967C39.2368 52.2174 40.2508 73.3887 55.3815 79.4144C56.4181 79.8698 56.9185 80.8968 56.6422 82.0135L42.7185 118.423C42.3986 119.148 41.836 119.579 41.0467 119.643H40.0631C37.4995 119.049 35.0014 117.757 32.6746 116.511C15.4768 107.295 3.54419 90.1796 0.866949 70.8853C0.611785 69.0479 0.398267 67.1326 0.514611 65.2945C0.451812 64.7309 0.42537 64.1211 0.416115 63.5746C0.359265 62.7041 0.297788 61.6897 0.416115 60.8224C0.367198 60.3347 0.399589 59.8265 0.514611 59.2992C0.35001 56.188 0.878848 52.9679 1.50089 49.9088C6.52551 25.2165 26.4204 6.07273 51.209 1.72535C54.2221 1.1967 56.9885 1.02378 60.0386 0.974281C64.0287 0.910262 67.8945 0.990781 71.841 1.65407C97.7646 6.01333 117.977 26.0784 122.416 51.9528C123.028 55.5154 123.155 58.8735 123.149 62.4777C123.144 65.2516 123.091 67.9682 122.722 70.7236C120.089 90.3789 107.643 107.769 90.0726 116.899C87.9771 117.988 85.7481 119.137 83.447 119.644L83.4476 119.644Z" fill="#1D531D"/>
    <path d="M84.1405 114.727L71.8616 82.6379C83.5892 76.7772 88.0427 62.1042 81.2643 50.7193C72.9338 36.7275 52.7983 35.8629 43.3275 49.1459C35.227 60.5064 39.2442 76.3145 51.5747 82.5429L51.6726 82.7356L39.3784 114.69C39.2495 114.783 38.1469 114.256 37.9307 114.158C2.76431 98.2256 -6.46986 51.8149 19.8927 23.4742C44.5081 -2.98889 87.6659 -0.173366 108.418 29.3917C128.619 58.1713 118.394 98.1675 86.9269 113.537C86.5904 113.701 84.2655 114.815 84.1412 114.727H84.1405Z" fill="#3DA539"/>
</svg>
