<svg width="152" height="178" viewBox="0 0 152 178" fill="none" xmlns="http://www.w3.org/2000/svg">
<g filter="url(#filter0_dddd_447_1528)">
<rect x="51.9545" y="21.6492" width="78" height="83" rx="21" transform="rotate(-14.2587 51.9545 21.6492)" fill="#FFFDFD"/>
<rect x="52.5622" y="22.0106" width="77" height="82" rx="20.5" transform="rotate(-14.2587 52.5622 22.0106)" stroke="black"/>
<g clip-path="url(#clip0_447_1528)">
<path fill-rule="evenodd" clip-rule="evenodd" d="M91.1279 28.2968C91.3441 28.1968 91.5637 28.1027 91.7868 28.0146L92.0028 28.5981L92.5888 28.3815L92.3735 27.7984C92.5983 27.722 92.8264 27.6513 93.058 27.5864L93.6728 30.0058L94.2786 29.8519L93.6638 27.4325C93.8979 27.3795 94.1322 27.3328 94.3666 27.2926L94.4557 27.9071L95.074 27.8177L94.9852 27.2018C95.2228 27.1728 95.4607 27.1506 95.6989 27.1352L95.723 27.7579L96.3474 27.7333L96.3232 27.1101C96.5628 27.1059 96.8018 27.1088 97.0399 27.1188L96.9983 27.742L97.6227 27.7832L97.6634 27.159C97.9023 27.1808 98.1397 27.209 98.3755 27.2437L98.2701 27.8592L98.8863 27.9645L98.9912 27.3497C99.2265 27.3957 99.4596 27.4484 99.6905 27.5079L99.0126 29.9128L99.6141 30.0823L100.123 28.2783L100.292 27.6783C100.52 27.7491 100.747 27.8262 100.971 27.9094L100.74 28.4872L101.321 28.7187L101.551 28.1412C101.771 28.2353 101.987 28.3354 102.201 28.4415L101.912 28.9921L102.465 29.2824L102.755 28.7322C102.964 28.849 103.169 28.9713 103.37 29.0994L103.026 29.6158L103.545 29.9629L103.891 29.4462C104.086 29.5833 104.277 29.726 104.464 29.8745L104.067 30.3528L104.547 30.7523L104.945 30.2732C105.126 30.4303 105.302 30.5924 105.473 30.7596L105.026 31.1943L103.683 32.5028L104.119 32.9504L105.463 31.6417L105.909 31.2065C106.072 31.3814 106.23 31.5608 106.382 31.7447L105.892 32.131L106.279 32.622L106.769 32.2357C106.912 32.4264 107.05 32.6213 107.184 32.8204L106.656 33.1545L106.989 33.6825L107.517 33.3497C107.639 33.5542 107.756 33.7627 107.867 33.9752L107.307 34.2515L107.584 34.8119L108.143 34.5363C108.243 34.7517 108.337 34.9711 108.425 35.1946L107.842 35.4106L108.058 35.9967L108.641 35.7815C108.717 36.0062 108.788 36.2344 108.853 36.466L106.434 37.0808L106.587 37.6865L109.007 37.0717C109.06 37.3063 109.107 37.5405 109.147 37.7744L108.532 37.8636L108.622 38.4825L109.238 38.3931C109.267 38.6316 109.289 38.8694 109.305 39.1067L108.681 39.1309L108.706 39.756L109.33 39.7309C109.334 39.9707 109.331 40.2097 109.321 40.4478L108.697 40.4069L108.656 41.0307L109.28 41.0719C109.258 41.3101 109.23 41.5472 109.196 41.7833L108.581 41.6773L108.475 42.2936L109.09 42.3992C109.044 42.6344 108.991 42.8675 108.931 43.0985L108.331 42.9292L106.527 42.4205L106.357 43.022L108.161 43.5309L108.761 43.7002C108.69 43.9288 108.613 44.1547 108.53 44.3779L107.952 44.1478L107.721 44.7288L108.298 44.9586C108.204 45.1786 108.104 45.3953 107.998 45.6089L107.448 45.3198L107.156 45.8736L107.707 46.1625C107.591 46.3709 107.468 46.5761 107.341 46.778L106.823 46.4335L106.477 46.9537L106.994 47.2982C106.856 47.4939 106.714 47.6854 106.566 47.8726L106.087 47.4746L105.687 47.9553L106.166 48.3533C106.009 48.5335 105.847 48.7093 105.68 48.8806L105.245 48.4345L103.937 47.0917L103.489 47.5279L104.798 48.8707L105.233 49.3172C105.058 49.4799 104.878 49.6375 104.694 49.7901L104.308 49.3L103.817 49.6867L104.204 50.1778C104.013 50.321 103.818 50.4587 103.619 50.5909L103.285 50.0632L102.756 50.3967L103.09 50.9245C102.886 51.0469 102.677 51.1638 102.464 51.2751L102.188 50.7147L101.627 50.9912L101.904 51.551C101.687 51.6511 101.468 51.7452 101.245 51.8333L101.029 51.2491L100.442 51.4651L100.658 52.0488C100.433 52.1253 100.205 52.1962 99.9735 52.2614L99.3585 49.8415L98.7528 49.9954L99.3676 52.4148C99.1347 52.468 98.9004 52.5148 98.6649 52.5553L98.5755 51.9396L97.9574 52.0296L98.0462 52.6455C97.809 52.6743 97.5711 52.6967 97.3327 52.7126L97.3083 52.0888L96.6838 52.1134L96.7084 52.7378C96.4694 52.7417 96.2304 52.7388 95.9916 52.7291L96.0317 52.105L95.4088 52.0647L95.3672 52.6878C95.1294 52.6668 94.8922 52.6389 94.656 52.6042L94.7612 51.988L94.1455 51.8821L94.0401 52.4976C93.8056 52.4515 93.5724 52.3988 93.3409 52.3393L93.5101 51.7391L94.0188 49.9345L93.4173 49.7649L92.9086 51.5696L92.7398 52.169C92.5111 52.0981 92.2847 52.0211 92.0607 51.9379L92.291 51.3596L91.7106 51.1286L91.4807 51.7061C91.2608 51.612 91.044 51.5118 90.8305 51.4058L91.1195 50.8557L90.5665 50.5649L90.2768 51.115C90.0683 50.9985 89.8631 50.8762 89.6613 50.7485L90.0066 50.2319L89.4862 49.8843L89.1411 50.4015C88.9458 50.2641 88.7542 50.1214 88.5667 49.9736L88.9643 49.4953L88.4834 49.0951L88.0853 49.5736C87.9054 49.4166 87.7299 49.2548 87.5589 49.0883L88.0048 48.6532L89.3476 47.3446L88.9115 46.897L87.5686 48.2055L87.1222 48.6414C86.9594 48.4662 86.8017 48.2863 86.6492 48.1019L87.1397 47.7155L86.7525 47.2245L86.2615 47.6117C86.1182 47.4207 85.9805 47.2256 85.8484 47.0267L86.3762 46.6927L86.0427 46.1648L85.5147 46.4976C85.3919 46.2925 85.275 46.0839 85.1642 45.8721L85.7242 45.5963L85.4475 45.0353L84.8883 45.3116C84.7883 45.0958 84.6942 44.8762 84.6061 44.6527L85.1909 44.437L84.9742 43.8504L84.3905 44.0658C84.3141 43.8414 84.2435 43.6133 84.1785 43.3813L86.5978 42.7665L86.4439 42.1607L84.0246 42.7756C83.9711 42.5415 83.9245 42.3072 83.8846 42.0727L84.4997 41.9835L84.4103 41.3652L83.7933 41.4543C83.7651 41.2164 83.7429 40.9787 83.7268 40.7412L84.3499 40.7164L84.3253 40.0919L83.7015 40.1163C83.6982 39.8764 83.7011 39.6375 83.7103 39.3996L84.3345 39.4402L84.3745 38.8161L83.7516 38.7758C83.7725 38.5366 83.8004 38.2993 83.8351 38.0639L84.4513 38.1692L84.5571 37.5529L83.9416 37.4475C83.9878 37.213 84.0406 36.9804 84.1002 36.7494L84.7002 36.9181L86.5048 37.4268L86.6744 36.8252L84.8697 36.3165L84.2711 36.1482C84.3419 35.9195 84.419 35.6931 84.5022 35.4691L85.08 35.7001L85.3117 35.1196L84.734 34.8891C84.8278 34.6697 84.9279 34.4529 85.0343 34.2389L85.585 34.5278L85.8758 33.9747L85.325 33.6852C85.4419 33.4767 85.5638 33.2714 85.6909 33.0693L86.2079 33.4138L86.555 32.8942L86.0378 32.549C86.1751 32.3534 86.3177 32.1619 86.4658 31.9747L86.944 32.3722L87.3442 31.8914L86.8653 31.494C87.022 31.314 87.1842 31.1382 87.3517 30.9667L87.7863 31.4134L89.0947 32.7556L89.5423 32.3194L87.7985 30.53C87.9735 30.3678 88.1531 30.2101 88.3374 30.0571L88.7237 30.5471L89.2141 30.16L88.8278 29.67C89.0184 29.527 89.2133 29.3889 89.4125 29.2558L89.7465 29.7835L90.2746 29.4507L89.9418 28.9226C90.1462 28.8002 90.3548 28.6836 90.5674 28.5728L90.8436 29.132L91.404 28.8554L91.1279 28.2968ZM93.206 26.9001C86.0134 28.7279 81.6641 36.0401 83.4921 43.2333C85.3202 50.4265 92.6327 54.775 99.8253 52.9472C107.018 51.1193 111.367 43.8066 109.539 36.614C107.711 29.4214 100.399 25.0722 93.206 26.9001ZM94.5865 31.0633L96.7416 39.5438L102.193 38.1584L102.347 38.7641L96.2898 40.3035L93.9807 31.2173L94.5865 31.0633Z" fill="black"/>
</g>
<rect x="71.7925" y="71.2918" width="64" height="16.0012" rx="4" transform="rotate(-14.2587 71.7925 71.2918)" fill="#FFA200"/>
<path d="M91.0914 78.721L90.8749 77.8691L93.1671 73.6145C93.3564 73.2567 93.4982 72.9589 93.5927 72.721C93.694 72.4814 93.7538 72.2672 93.7722 72.0782C93.7905 71.8892 93.7759 71.7011 93.7284 71.5141C93.621 71.0916 93.3997 70.7866 93.0644 70.5989C92.7361 70.4095 92.3538 70.3703 91.9174 70.4812C91.4464 70.6009 91.1033 70.8466 90.8881 71.2184C90.6711 71.5832 90.6052 72.035 90.6905 72.5737L89.5996 72.8509C89.497 72.3019 89.5132 71.8 89.6484 71.3454C89.7818 70.8838 90.0212 70.4911 90.3666 70.1674C90.712 69.8437 91.1514 69.614 91.6847 69.4785C92.1765 69.3535 92.6384 69.3431 93.0704 69.4471C93.5075 69.5425 93.8792 69.743 94.1855 70.0486C94.4969 70.3455 94.7116 70.726 94.8295 71.1901C94.9298 71.5849 94.9305 71.9939 94.8317 72.4172C94.7328 72.8405 94.5258 73.3319 94.2108 73.8912L92.3208 77.2915L92.3314 77.333L96.2898 76.3271L96.5459 77.3349L91.0914 78.721Z" fill="white"/>
<path d="M98.3824 76.8682L96.2438 68.4526L97.8957 68.0328L102.196 74.1624L102.238 74.1519L103.101 66.71L104.742 66.2929L106.881 74.7084L105.728 75.0015L103.946 67.9885L103.904 67.9991L103.068 75.6774L102.123 75.9177L97.7093 69.5623L97.6677 69.5729L99.4526 76.5962L98.3824 76.8682Z" fill="white"/>
<path d="M109.156 74.1304L107.017 65.7148L108.16 65.4244L110.299 73.8399L109.156 74.1304Z" fill="white"/>
<path d="M119.477 71.5073L118.189 71.8347L111.982 66.2559L111.941 66.2665L113.649 72.9885L112.579 73.2605L110.44 64.8449L111.708 64.5228L117.943 70.1275L117.985 70.117L116.269 63.3637L117.339 63.0918L119.477 71.5073Z" fill="white"/>
<path d="M122.038 70.9893C121.81 71.0474 121.595 71.017 121.396 70.8982C121.196 70.7794 121.067 70.6057 121.009 70.3771C120.951 70.1485 120.981 69.9344 121.1 69.7346C121.219 69.5348 121.392 69.4058 121.621 69.3478C121.85 69.2897 122.064 69.32 122.264 69.4389C122.463 69.5577 122.592 69.7314 122.65 69.9599C122.708 70.1885 122.678 70.4027 122.559 70.6025C122.44 70.8023 122.267 70.9312 122.038 70.9893Z" fill="white"/>
</g>
<defs>
<filter id="filter0_dddd_447_1528" x="-4.04553" y="-3.56219" width="160.04" height="185.654" filterUnits="userSpaceOnUse" color-interpolation-filters="sRGB">
<feFlood flood-opacity="0" result="BackgroundImageFix"/>
<feColorMatrix in="SourceAlpha" type="matrix" values="0 0 0 0 0 0 0 0 0 0 0 0 0 0 0 0 0 0 127 0" result="hardAlpha"/>
<feOffset dx="-2" dy="3"/>
<feGaussianBlur stdDeviation="4.5"/>
<feColorMatrix type="matrix" values="0 0 0 0 0 0 0 0 0 0 0 0 0 0 0 0 0 0 0.09 0"/>
<feBlend mode="normal" in2="BackgroundImageFix" result="effect1_dropShadow_447_1528"/>
<feColorMatrix in="SourceAlpha" type="matrix" values="0 0 0 0 0 0 0 0 0 0 0 0 0 0 0 0 0 0 127 0" result="hardAlpha"/>
<feOffset dx="-8" dy="14"/>
<feGaussianBlur stdDeviation="8"/>
<feColorMatrix type="matrix" values="0 0 0 0 0 0 0 0 0 0 0 0 0 0 0 0 0 0 0.08 0"/>
<feBlend mode="normal" in2="effect1_dropShadow_447_1528" result="effect2_dropShadow_447_1528"/>
<feColorMatrix in="SourceAlpha" type="matrix" values="0 0 0 0 0 0 0 0 0 0 0 0 0 0 0 0 0 0 127 0" result="hardAlpha"/>
<feOffset dx="-17" dy="31"/>
<feGaussianBlur stdDeviation="10.5"/>
<feColorMatrix type="matrix" values="0 0 0 0 0 0 0 0 0 0 0 0 0 0 0 0 0 0 0.05 0"/>
<feBlend mode="normal" in2="effect2_dropShadow_447_1528" result="effect3_dropShadow_447_1528"/>
<feColorMatrix in="SourceAlpha" type="matrix" values="0 0 0 0 0 0 0 0 0 0 0 0 0 0 0 0 0 0 127 0" result="hardAlpha"/>
<feOffset dx="-31" dy="55"/>
<feGaussianBlur stdDeviation="12.5"/>
<feColorMatrix type="matrix" values="0 0 0 0 0 0 0 0 0 0 0 0 0 0 0 0 0 0 0.01 0"/>
<feBlend mode="normal" in2="effect3_dropShadow_447_1528" result="effect4_dropShadow_447_1528"/>
<feBlend mode="normal" in="SourceGraphic" in2="effect4_dropShadow_447_1528" result="shape"/>
</filter>
<clipPath id="clip0_447_1528">
<rect width="30" height="30" fill="white" transform="translate(78.6631 29.3061) rotate(-14.2587)"/>
</clipPath>
</defs>
</svg>
