<svg width="412" height="185" viewBox="0 0 412 185" fill="none" xmlns="http://www.w3.org/2000/svg">
<g filter="url(#filter0_dddd_447_1524)">
<rect x="53.1882" y="72.01" width="353" height="36.343" rx="18.1715" transform="rotate(-11.1688 53.1882 72.01)" fill="#FF0000"/>
<path d="M209.859 64.8385C209.149 64.9786 208.503 64.9793 207.921 64.8406C207.346 64.7003 206.864 64.4467 206.475 64.0797C206.084 63.705 205.812 63.2353 205.661 62.6705L206.783 62.4491C206.975 63.0612 207.325 63.4876 207.832 63.7284C208.347 63.9676 208.971 64.0149 209.704 63.8702C210.406 63.7316 210.915 63.4805 211.232 63.1167C211.554 62.7438 211.664 62.294 211.56 61.7675C211.475 61.3402 211.269 61.0164 210.94 60.7959C210.619 60.5739 210.16 60.4584 209.563 60.4493L208.072 60.4227C207.292 60.4101 206.66 60.2416 206.176 59.917C205.692 59.5924 205.388 59.1173 205.264 58.4916C205.166 57.9956 205.202 57.5328 205.371 57.103C205.546 56.6642 205.84 56.2889 206.254 55.9772C206.669 55.6655 207.185 55.4487 207.803 55.3266C208.444 55.2001 209.023 55.2046 209.542 55.3401C210.067 55.4741 210.516 55.7185 210.887 56.0733C211.259 56.4281 211.529 56.8741 211.699 57.4115L210.577 57.6329C210.362 57.065 210.026 56.6714 209.571 56.4521C209.114 56.2253 208.569 56.1743 207.935 56.2994C207.348 56.4154 206.902 56.6461 206.597 56.9916C206.291 57.3295 206.185 57.735 206.279 58.2081C206.352 58.582 206.541 58.8738 206.844 59.0835C207.155 59.2917 207.613 59.4034 208.218 59.4187L209.772 59.4568C210.575 59.4725 211.21 59.6525 211.674 59.9969C212.144 60.3321 212.445 60.8278 212.574 61.484C212.735 62.3005 212.579 63.0132 212.104 63.6222C211.63 64.2312 210.882 64.6366 209.859 64.8385ZM214.977 63.6853L213.621 56.8178L214.651 56.6144L216.007 63.4819L214.977 63.6853ZM213.933 55.686C213.742 55.7237 213.565 55.6912 213.402 55.5886C213.246 55.4769 213.148 55.3256 213.111 55.1349C213.073 54.9441 213.106 54.7711 213.21 54.6157C213.32 54.4513 213.471 54.3502 213.662 54.3125C213.853 54.2749 214.026 54.3119 214.183 54.4236C214.346 54.5262 214.446 54.6729 214.484 54.8637C214.522 55.0544 214.485 55.2321 214.375 55.3965C214.271 55.5519 214.124 55.6484 213.933 55.686ZM221.412 65.4115C220.588 65.5742 219.861 65.5076 219.232 65.2117C218.604 64.9233 218.179 64.4563 217.956 63.8105L219.055 63.5936C219.218 63.9738 219.488 64.2414 219.868 64.3964C220.247 64.5514 220.693 64.5784 221.204 64.4775C221.86 64.3479 222.334 64.06 222.627 63.6138C222.928 63.1737 223.015 62.6294 222.887 61.9808L222.657 60.8133L222.611 60.8224C222.524 61.2676 222.321 61.6408 221.999 61.942C221.678 62.2432 221.27 62.4428 220.774 62.5407C220.194 62.6552 219.654 62.6112 219.154 62.4086C218.661 62.1969 218.24 61.8519 217.892 61.3736C217.543 60.8953 217.301 60.309 217.164 59.6146C217.027 58.9202 217.028 58.2857 217.168 57.711C217.309 57.1363 217.568 56.661 217.945 56.2852C218.329 55.9002 218.811 55.6505 219.391 55.536C219.887 55.438 220.341 55.4674 220.752 55.624C221.163 55.7806 221.493 56.0445 221.741 56.4158L221.787 56.4067L221.558 55.2507L222.588 55.0473L223.933 61.8575C224.111 62.7579 223.969 63.5271 223.509 64.1651C223.057 64.8092 222.358 65.2247 221.412 65.4115ZM220.829 61.5547C221.401 61.4418 221.822 61.1644 222.092 60.7227C222.369 60.2795 222.447 59.7527 222.327 59.1423L222.119 58.0893C221.998 57.4788 221.726 57.0213 221.301 56.7167C220.884 56.4106 220.389 56.3141 219.817 56.4271C219.168 56.5551 218.695 56.8903 218.398 57.4326C218.108 57.9734 218.04 58.6329 218.194 59.4112C218.347 60.1895 218.661 60.7738 219.134 61.1639C219.616 61.5525 220.18 61.6828 220.829 61.5547ZM226.145 61.4804L224.789 54.6129L225.819 54.4095L226.045 55.5541L226.091 55.5451C226.208 55.0939 226.428 54.7253 226.752 54.4393C227.075 54.1457 227.48 53.9507 227.969 53.8543C228.472 53.7548 228.938 53.7857 229.366 53.9469C229.795 54.1082 230.157 54.3775 230.453 54.755C230.749 55.1249 230.949 55.5807 231.056 56.1224L231.89 60.3459L230.86 60.5493L230.058 56.4861C229.936 55.868 229.676 55.4159 229.279 55.1296C228.888 54.8343 228.402 54.7439 227.822 54.8584C227.242 54.9729 226.823 55.2418 226.566 55.6652C226.315 56.0795 226.25 56.5957 226.372 57.2137L227.175 61.277L226.145 61.4804ZM235.798 59.7052C235.126 59.8378 234.539 59.7555 234.037 59.4583C233.542 59.1597 233.235 58.7089 233.116 58.1061C232.989 57.4652 233.097 56.9247 233.438 56.4847C233.787 56.0432 234.343 55.7471 235.106 55.5965L237.223 55.1784L237.151 54.8122C237.039 54.2475 236.805 53.8419 236.447 53.5955C236.097 53.3475 235.654 53.2763 235.12 53.3817C234.678 53.4691 234.336 53.6437 234.094 53.9054C233.851 54.1596 233.724 54.4819 233.714 54.8723L232.661 55.0802C232.635 54.4273 232.833 53.865 233.256 53.3931C233.676 52.9137 234.249 52.6024 234.974 52.4593C235.798 52.2966 236.488 52.3982 237.044 52.7641C237.598 53.1224 237.957 53.7136 238.119 54.5377L238.989 58.9443L238.005 59.1386L237.754 57.8682L237.708 57.8772C237.617 58.3392 237.398 58.7352 237.051 59.0654C236.704 59.3955 236.286 59.6088 235.798 59.7052ZM235.828 58.7718C236.209 58.6964 236.535 58.5409 236.806 58.3051C237.075 58.0617 237.267 57.7701 237.382 57.4302C237.504 57.0812 237.527 56.716 237.451 56.3344L237.386 56.0025L235.348 56.4048C234.853 56.5027 234.495 56.6803 234.276 56.9375C234.065 57.1933 233.996 57.5043 234.068 57.8705C234.14 58.2368 234.336 58.5034 234.654 58.6705C234.971 58.8299 235.362 58.8637 235.828 58.7718ZM241.186 58.5106L239.288 48.8962L240.318 48.6928L242.216 58.3072L241.186 58.5106ZM247.273 57.4514C246.663 57.572 246.088 57.5347 245.551 57.3397C245.011 57.137 244.551 56.7957 244.171 56.3158C243.789 55.8283 243.526 55.2183 243.382 54.4857C243.239 53.7608 243.248 53.1088 243.412 52.5295C243.581 51.9412 243.87 51.4561 244.278 51.0742C244.694 50.6908 245.199 50.4404 245.794 50.3229C246.359 50.2114 246.884 50.2424 247.371 50.416C247.857 50.5896 248.273 50.8918 248.62 51.3228C248.965 51.7462 249.202 52.2822 249.33 52.9308L249.431 53.4458L244.395 54.4402C244.577 55.1972 244.911 55.7654 245.398 56.1449C245.891 56.5153 246.451 56.6387 247.076 56.5152C247.519 56.4278 247.875 56.2426 248.144 55.9595C248.419 55.6673 248.573 55.3199 248.604 54.9173L249.657 54.7094C249.648 55.1868 249.543 55.6159 249.341 55.9968C249.137 56.37 248.858 56.6828 248.503 56.9351C248.156 57.1859 247.746 57.358 247.273 57.4514ZM244.29 53.6048L248.273 52.8184C248.099 52.2185 247.803 51.7815 247.384 51.5074C246.971 51.2242 246.498 51.1353 245.964 51.2408C245.43 51.3463 245.014 51.6106 244.717 52.034C244.419 52.4496 244.276 52.9733 244.29 53.6048ZM252.035 56.3686L250.679 49.5012L251.652 49.3091L251.939 50.7627L251.985 50.7537C252.048 50.2733 252.232 49.8604 252.537 49.5149C252.849 49.1679 253.268 48.9424 253.795 48.8385L254.287 48.7413L254.467 49.6569L253.918 49.7654C253.269 49.8935 252.808 50.2066 252.534 50.7047C252.267 51.2013 252.206 51.8158 252.351 52.5484L253.065 56.1652L252.035 56.3686Z" fill="white"/>
</g>
<defs>
<filter id="filter0_dddd_447_1524" x="-2.81183" y="-2.36627" width="417.354" height="190.031" filterUnits="userSpaceOnUse" color-interpolation-filters="sRGB">
<feFlood flood-opacity="0" result="BackgroundImageFix"/>
<feColorMatrix in="SourceAlpha" type="matrix" values="0 0 0 0 0 0 0 0 0 0 0 0 0 0 0 0 0 0 127 0" result="hardAlpha"/>
<feOffset dx="-2" dy="3"/>
<feGaussianBlur stdDeviation="4.5"/>
<feColorMatrix type="matrix" values="0 0 0 0 0 0 0 0 0 0 0 0 0 0 0 0 0 0 0.09 0"/>
<feBlend mode="normal" in2="BackgroundImageFix" result="effect1_dropShadow_447_1524"/>
<feColorMatrix in="SourceAlpha" type="matrix" values="0 0 0 0 0 0 0 0 0 0 0 0 0 0 0 0 0 0 127 0" result="hardAlpha"/>
<feOffset dx="-8" dy="14"/>
<feGaussianBlur stdDeviation="8"/>
<feColorMatrix type="matrix" values="0 0 0 0 0 0 0 0 0 0 0 0 0 0 0 0 0 0 0.08 0"/>
<feBlend mode="normal" in2="effect1_dropShadow_447_1524" result="effect2_dropShadow_447_1524"/>
<feColorMatrix in="SourceAlpha" type="matrix" values="0 0 0 0 0 0 0 0 0 0 0 0 0 0 0 0 0 0 127 0" result="hardAlpha"/>
<feOffset dx="-17" dy="31"/>
<feGaussianBlur stdDeviation="10.5"/>
<feColorMatrix type="matrix" values="0 0 0 0 0 0 0 0 0 0 0 0 0 0 0 0 0 0 0.05 0"/>
<feBlend mode="normal" in2="effect2_dropShadow_447_1524" result="effect3_dropShadow_447_1524"/>
<feColorMatrix in="SourceAlpha" type="matrix" values="0 0 0 0 0 0 0 0 0 0 0 0 0 0 0 0 0 0 127 0" result="hardAlpha"/>
<feOffset dx="-31" dy="55"/>
<feGaussianBlur stdDeviation="12.5"/>
<feColorMatrix type="matrix" values="0 0 0 0 0 0 0 0 0 0 0 0 0 0 0 0 0 0 0.01 0"/>
<feBlend mode="normal" in2="effect3_dropShadow_447_1524" result="effect4_dropShadow_447_1524"/>
<feBlend mode="normal" in="SourceGraphic" in2="effect4_dropShadow_447_1524" result="shape"/>
</filter>
</defs>
</svg>
