<svg width="425" height="254" viewBox="0 0 425 254" fill="none" xmlns="http://www.w3.org/2000/svg">
<g filter="url(#filter0_dddd_447_1527)">
<rect x="73.6227" y="2.82741" width="352" height="111.535" rx="24.5" transform="rotate(10.5747 73.6227 2.82741)" fill="#FFFDFD" stroke="black"/>
<line x1="369.044" y1="117.798" x2="101.269" y2="67.8079" stroke="black"/>
<circle cx="93.319" cy="66.7985" r="7.5" transform="rotate(10.5747 93.319 66.7985)" stroke="black"/>
<circle cx="137.397" cy="75.0274" r="8" transform="rotate(10.5747 137.397 75.0274)" fill="#EB0000"/>
<circle cx="376.174" cy="119.604" r="8" transform="rotate(10.5747 376.174 119.604)" fill="black"/>
<g clip-path="url(#clip0_447_1527)">
<mask id="mask0_447_1527" style="mask-type:luminance" maskUnits="userSpaceOnUse" x="112" y="27" width="63" height="31">
<path d="M116.294 27.3174L174.292 38.1449L170.622 57.8053L112.624 46.9778L116.294 27.3174Z" fill="white"/>
</mask>
<g mask="url(#mask0_447_1527)">
<path fill-rule="evenodd" clip-rule="evenodd" d="M118.261 27.6845C117.739 27.5871 117.2 27.7009 116.763 28.0008C116.325 28.3007 116.025 28.7621 115.927 29.2835L112.991 45.0117C112.894 45.5332 113.008 46.0719 113.308 46.5094C113.607 46.947 114.069 47.2475 114.59 47.3448L168.656 57.4382C169.178 57.5356 169.716 57.4218 170.154 57.1219C170.591 56.822 170.892 56.3606 170.989 55.8392L173.925 40.111C174.023 39.5895 173.909 39.0508 173.609 38.6133C173.309 38.1757 172.848 37.8752 172.326 37.7779L118.261 27.6845Z" fill="#EB0000"/>
<path d="M124.587 33.1381L128.575 33.8826L121.514 44.3648L117.51 43.6173L124.587 33.1381ZM131.201 34.3728L145.351 37.0145L143.255 40.1276L133.149 38.241L130.277 42.4963L140.388 44.3838L138.291 47.4968L124.139 44.8549L131.201 34.3728ZM158.704 42.4788L156.542 42.0751C156.504 41.1613 156.089 40.6304 155.295 40.4822C154.456 40.3256 153.763 40.7301 153.217 41.6955C152.994 42.0892 152.759 42.7025 152.512 43.5354C152.94 43.1386 153.365 42.8747 153.786 42.7438C154.213 42.6138 154.698 42.5997 155.243 42.7014C156.311 42.9008 157.098 43.4394 157.604 44.3172C158.088 45.1481 158.229 46.1025 158.027 47.1804C157.788 48.4616 157.181 49.4131 156.207 50.0349C155.33 50.5953 154.367 50.7779 153.321 50.5825C151.979 50.3319 151.028 49.6316 150.47 48.4816C149.912 47.3264 149.803 45.8415 150.143 44.027C150.505 42.0884 151.187 40.6442 152.191 39.6942C153.163 38.7756 154.317 38.4411 155.654 38.6907C156.913 38.9258 157.798 39.5285 158.309 40.4987C158.602 41.0572 158.733 41.7172 158.704 42.4788ZM154.369 44.3652C153.825 44.2636 153.35 44.411 152.943 44.8071C152.577 45.1571 152.341 45.612 152.237 46.1717C152.133 46.7267 152.19 47.2393 152.409 47.7093C152.644 48.2306 153.041 48.5436 153.602 48.6482C154.146 48.7498 154.625 48.6111 155.039 48.232C155.427 47.8751 155.674 47.4142 155.78 46.8493C155.883 46.2943 155.832 45.794 155.625 45.3485C155.373 44.8023 154.954 44.4746 154.369 44.3652ZM164.3 40.3049C165.165 40.4664 165.878 40.873 166.438 41.5248C166.992 42.1757 167.315 43.0782 167.405 44.2324C167.471 45.1135 167.413 46.0465 167.229 47.0315C166.924 48.6646 166.383 49.9532 165.606 50.8973C165.149 51.4449 164.613 51.833 163.997 52.0618C163.378 52.291 162.708 52.3437 162.061 52.2141C161.133 52.0409 160.392 51.613 159.839 50.9305C158.853 49.717 158.584 47.9073 159.033 45.5015C159.353 43.7911 159.915 42.4746 160.72 41.5519C161.15 41.0439 161.708 40.6591 162.336 40.4366C162.968 40.2208 163.645 40.1754 164.3 40.3049ZM163.856 42.2097C163.109 42.0703 162.521 42.4057 162.092 43.216C161.751 43.8604 161.465 44.7996 161.235 46.0336C161.032 47.1221 160.978 48.0157 161.072 48.7143C161.192 49.6218 161.631 50.1465 162.388 50.2884C163.015 50.4055 163.544 50.1607 163.973 49.554C164.403 48.9472 164.746 47.9623 165 46.5992C165.217 45.4379 165.279 44.5028 165.186 43.7937C165.066 42.8809 164.623 42.3529 163.856 42.2097Z" fill="white"/>
</g>
</g>
<g clip-path="url(#clip1_447_1527)">
<rect x="90.4596" y="22.4944" width="24.4414" height="24.4414" transform="rotate(10.5747 90.4596 22.4944)" fill="#0009FF"/>
<path fill-rule="evenodd" clip-rule="evenodd" d="M99.0515 26.556L99.2615 26.752L101.536 28.8721L102.009 29.3131L101.409 29.5537L99.8455 30.1799L101.865 30.5569C103.629 30.8871 104.938 32.1826 105.331 33.748C105.358 33.8559 105.38 33.9646 105.398 34.0742L106.316 39.1396C106.382 39.3663 106.405 39.6164 106.357 39.8728C106.276 40.3073 106.017 40.6902 105.637 40.9372C105.257 41.1842 104.787 41.2752 104.331 41.19L102.567 40.8608C102.446 41.1518 102.259 41.4052 102.027 41.6077L106.758 42.4909L106.605 43.3101L89.4024 40.0985L89.5553 39.2793L90.8455 39.5202C90.6997 39.2421 90.6197 38.9377 90.6114 38.6288L89.7082 38.4602L89.8612 37.641L104.484 40.3708C104.712 40.4134 104.947 40.3679 105.137 40.2444C105.327 40.1209 105.456 39.9295 105.497 39.7122C105.518 39.5868 105.509 39.4579 105.471 39.3352L105.464 39.3128L105.46 39.2899L105.22 37.9651L99.7815 36.9498L100.546 32.8547L104.368 33.5683C103.958 32.4778 102.98 31.6136 101.712 31.3769L91.3903 29.45L91.5432 28.6308L97.0034 29.6502L95.7716 28.5004L95.2984 28.0603L95.8987 27.8197L98.785 26.663L99.0515 26.556ZM104.584 34.4562L101.253 33.8345L100.794 36.292L105.061 37.0885L104.584 34.4562ZM98.3525 40.0748C98.3606 40.3891 98.4436 40.6928 98.5866 40.9662L94.2859 40.1633C94.5179 39.96 94.705 39.7067 94.8259 39.4164L98.3525 40.0748ZM91.5015 38.7958L93.9357 39.2502C93.8015 39.4728 93.5979 39.649 93.3527 39.7548C93.1074 39.8605 92.8326 39.8905 92.5659 39.8407C92.2992 39.791 92.0537 39.6638 91.8632 39.4767C91.6726 39.2896 91.5462 39.0518 91.5015 38.7958ZM99.2427 40.241C99.2875 40.497 99.4138 40.7348 99.6044 40.9219C99.795 41.109 100.04 41.2362 100.307 41.2859C100.574 41.3357 100.849 41.3057 101.094 41.2C101.339 41.0942 101.543 40.918 101.677 40.6954L99.2427 40.241ZM98.44 29.8319L100.459 29.0221L98.8676 27.5415L96.8483 28.3496L98.44 29.8319ZM95.3855 31.8896L99.6862 32.6925L98.9215 36.7884L94.6208 35.9855L95.3855 31.8896ZM96.0927 32.8694L95.6339 35.3269L98.2143 35.8086L98.6731 33.3511L96.0927 32.8694ZM90.9318 31.9059L93.5122 32.3876L93.0535 34.8452L90.473 34.3634L90.3201 35.1826L93.7607 35.8249L94.5253 31.729L91.0848 31.0867L90.9318 31.9059Z" fill="white"/>
</g>
<path d="M180.048 54.4786L182.03 43.862L185.215 44.4566C186.281 44.6556 187.163 45.0418 187.861 45.6151C188.567 46.1901 189.06 46.9151 189.34 47.7902C189.62 48.6653 189.658 49.649 189.454 50.7412C189.252 51.8247 188.862 52.7241 188.286 53.4393C187.709 54.1545 186.987 54.6572 186.119 54.9472C185.261 55.2302 184.299 55.2722 183.233 55.0732L180.048 54.4786ZM181.455 53.6289L183.434 53.9984C184.299 54.1599 185.061 54.1214 185.721 53.8828C186.382 53.6354 186.924 53.2258 187.347 52.6537C187.772 52.0729 188.064 51.3588 188.222 50.5112C188.46 49.2355 188.31 48.1495 187.772 47.2533C187.236 46.3484 186.316 45.7744 185.015 45.5314L183.035 45.1619L181.455 53.6289ZM190.478 56.4257L191.946 48.5616L193.126 48.7818L191.658 56.646L190.478 56.4257ZM192.756 47.4921C192.538 47.4513 192.364 47.342 192.234 47.1641C192.115 46.979 192.076 46.7773 192.117 46.5589C192.158 46.3404 192.266 46.1708 192.442 46.05C192.629 45.9221 192.832 45.8785 193.05 45.9193C193.268 45.96 193.437 46.0729 193.556 46.258C193.686 46.4359 193.73 46.634 193.69 46.8525C193.649 47.0709 193.535 47.2441 193.348 47.372C193.172 47.4929 192.975 47.5329 192.756 47.4921ZM194.377 57.1536L195.845 49.2894L196.959 49.4974L196.648 51.162L196.701 51.1718C196.972 50.6889 197.342 50.3285 197.811 50.0906C198.29 49.8543 198.83 49.7925 199.433 49.905L199.997 50.0102L199.801 51.0588L199.172 50.9413C198.429 50.8027 197.807 50.9397 197.305 51.3523C196.811 51.7666 196.486 52.3932 196.33 53.232L195.557 57.3738L194.377 57.1536ZM203.025 58.9309C202.326 58.8004 201.733 58.5177 201.244 58.0829C200.757 57.6394 200.414 57.0824 200.213 56.412C200.014 55.7329 199.993 54.9739 200.15 54.1351C200.305 53.305 200.592 52.617 201.01 52.0712C201.439 51.5183 201.951 51.1255 202.546 50.893C203.149 50.6621 203.792 50.6103 204.474 50.7375C205.12 50.8582 205.665 51.1136 206.107 51.5037C206.55 51.8937 206.864 52.3909 207.05 52.9953C207.237 53.5908 207.261 54.26 207.122 55.0027L207.012 55.5925L201.245 54.5159C201.117 55.3962 201.231 56.1409 201.588 56.75C201.955 57.352 202.496 57.7199 203.213 57.8537C203.72 57.9483 204.176 57.9023 204.581 57.7158C204.997 57.5222 205.307 57.2183 205.511 56.8043L206.717 57.0294C206.506 57.5325 206.212 57.9433 205.836 58.262C205.461 58.5719 205.033 58.7857 204.55 58.9035C204.075 59.0229 203.567 59.032 203.025 58.9309ZM201.487 53.5844L206.048 54.436C206.118 53.7255 205.988 53.1362 205.659 52.6679C205.341 52.1926 204.876 51.8978 204.265 51.7836C203.653 51.6694 203.1 51.7741 202.606 52.0978C202.113 52.4127 201.74 52.9082 201.487 53.5844ZM211.524 60.5174C210.833 60.3886 210.244 60.1067 209.756 59.6719C209.277 59.23 208.938 58.6738 208.738 58.0035C208.537 57.3331 208.515 56.5828 208.67 55.7527C208.826 54.9139 209.119 54.218 209.548 53.6651C209.976 53.1121 210.493 52.7202 211.096 52.4893C211.709 52.2601 212.36 52.2099 213.051 52.3387C213.575 52.4366 214.041 52.6276 214.449 52.9118C214.859 53.1872 215.184 53.5553 215.423 54.0159C215.664 54.4679 215.793 55.0119 215.81 55.648L214.578 55.418C214.544 54.8239 214.368 54.366 214.048 54.044C213.739 53.715 213.339 53.5048 212.85 53.4135C212.116 53.2765 211.475 53.4416 210.926 53.9089C210.38 54.3674 210.021 55.0555 209.849 55.973C209.68 56.8817 209.766 57.6529 210.109 58.2866C210.452 58.9203 210.99 59.3056 211.724 59.4427C212.24 59.5389 212.707 59.4815 213.126 59.2704C213.554 59.0609 213.895 58.6634 214.149 58.0778L215.355 58.3029C215.115 58.9092 214.795 59.3919 214.393 59.751C214 60.1117 213.557 60.3545 213.064 60.4794C212.579 60.6059 212.065 60.6186 211.524 60.5174ZM217.988 61.5614C217.638 61.4961 217.38 61.353 217.213 61.132C217.048 60.9022 217.001 60.5995 217.071 60.2237L218.152 54.4305L216.776 54.1736L216.952 53.2299L218.342 53.4893L218.782 51.13L219.935 51.3453L219.495 53.7046L221.461 54.0716L221.285 55.0153L219.332 54.6507L218.216 60.6275L220.353 61.0263L220.176 61.97L217.988 61.5614ZM221.797 62.2725L223.265 54.4083L224.444 54.6285L222.976 62.4927L221.797 62.2725ZM224.075 53.3388C223.856 53.298 223.682 53.1887 223.553 53.0108C223.434 52.8258 223.394 52.624 223.435 52.4056C223.476 52.1871 223.584 52.0175 223.761 51.8967C223.947 51.7688 224.15 51.7252 224.368 51.766C224.587 51.8068 224.756 51.9197 224.875 52.1047C225.004 52.2826 225.049 52.4808 225.008 52.6992C224.967 52.9177 224.853 53.0908 224.667 53.2188C224.49 53.3396 224.293 53.3796 224.075 53.3388ZM228.707 63.7253C228.008 63.5948 227.414 63.3121 226.925 62.8773C226.438 62.4337 226.095 61.8768 225.894 61.2064C225.694 60.536 225.671 59.7858 225.826 58.9557C225.983 58.1168 226.276 57.4209 226.704 56.868C227.133 56.3151 227.654 55.924 228.266 55.6947C228.879 55.4654 229.534 55.4161 230.233 55.5466C230.95 55.6803 231.548 55.9638 232.028 56.397C232.516 56.8318 232.856 57.3836 233.048 58.0523C233.248 58.7227 233.27 59.4773 233.114 60.3161C232.959 61.1462 232.666 61.8421 232.236 62.4038C231.816 62.9584 231.299 63.3503 230.687 63.5795C230.075 63.8088 229.414 63.8574 228.707 63.7253ZM228.907 62.6505C229.667 62.7924 230.317 62.6289 230.857 62.16C231.405 61.6927 231.765 61.0047 231.934 60.0959C232.105 59.1784 232.019 58.4072 231.674 57.7823C231.34 57.1502 230.793 56.7632 230.033 56.6213C229.29 56.4827 228.64 56.6462 228.083 57.1118C227.536 57.5704 227.177 58.2584 227.006 59.1759C226.836 60.0846 226.923 60.8558 227.266 61.4895C227.617 62.1248 228.165 62.5118 228.907 62.6505ZM234.447 64.634L235.915 56.7699L237.094 56.9901L236.85 58.3008L236.902 58.3106C237.217 57.8812 237.607 57.5833 238.073 57.4169C238.539 57.2418 239.052 57.2065 239.611 57.3109C240.188 57.4185 240.67 57.6486 241.056 58.001C241.442 58.3535 241.713 58.7928 241.868 59.3191C242.025 59.8366 242.045 60.4056 241.929 61.0259L241.026 65.8624L239.847 65.6422L240.715 60.9892C240.847 60.2814 240.763 59.6915 240.462 59.2194C240.172 58.7402 239.695 58.4386 239.031 58.3147C238.367 58.1907 237.808 58.299 237.356 58.6395C236.914 58.9729 236.627 59.4936 236.495 60.2013L235.626 64.8543L234.447 64.634ZM250.987 67.8848C250.175 67.7331 249.489 67.4603 248.929 67.0665C248.378 66.6743 247.974 66.201 247.716 65.6464C247.459 65.0831 247.37 64.4697 247.449 63.8062L248.734 64.046C248.678 64.7772 248.869 65.3779 249.306 65.8483C249.751 66.3202 250.393 66.6345 251.232 66.7911C252.036 66.9412 252.683 66.8902 253.173 66.6381C253.674 66.3789 253.98 65.9478 254.093 65.3449C254.184 64.8556 254.102 64.4243 253.846 64.051C253.599 63.6793 253.161 63.3624 252.532 63.1002L250.959 62.4405C250.137 62.0971 249.538 61.6507 249.161 61.1011C248.785 60.5515 248.663 59.9185 248.797 59.202C248.903 58.634 249.137 58.1577 249.498 57.773C249.869 57.3812 250.341 57.1075 250.912 56.952C251.484 56.7965 252.124 56.7848 252.831 56.9169C253.565 57.0539 254.179 57.3041 254.672 57.6674C255.173 58.0323 255.546 58.4817 255.79 59.0155C256.034 59.5493 256.132 60.1373 256.084 60.7795L254.8 60.5397C254.812 59.8457 254.623 59.2859 254.232 58.8603C253.843 58.4259 253.286 58.1411 252.56 58.0057C251.888 57.8801 251.316 57.9362 250.847 58.1741C250.379 58.4033 250.095 58.7887 249.994 59.3305C249.914 59.7586 249.99 60.1482 250.223 60.4991C250.465 60.8516 250.904 61.1642 251.54 61.4367L253.173 62.1349C254.02 62.4919 254.617 62.9514 254.964 63.5136C255.321 64.0686 255.43 64.7219 255.29 65.4734C255.115 66.4083 254.647 67.0986 253.886 67.5442C253.124 67.9898 252.158 68.1034 250.987 67.8848ZM258.808 69.3313C258.04 69.1878 257.451 68.8519 257.043 68.3236C256.644 67.797 256.509 67.1885 256.638 66.4982C256.775 65.7643 257.118 65.236 257.666 64.9134C258.224 64.5924 258.939 64.5135 259.813 64.6766L262.238 65.1293L262.316 64.7099C262.437 64.0633 262.359 63.5334 262.084 63.1203C261.817 62.7088 261.378 62.4459 260.766 62.3317C260.259 62.2371 259.822 62.2776 259.455 62.4531C259.089 62.62 258.818 62.9085 258.642 63.3187L257.437 63.0936C257.686 62.3896 258.134 61.8765 258.782 61.5544C259.431 61.2235 260.171 61.1355 261.001 61.2905C261.945 61.4667 262.634 61.8667 263.07 62.4904C263.506 63.1055 263.637 63.8849 263.46 64.8286L262.518 69.8747L261.391 69.6643L261.663 68.2094L261.61 68.1996C261.318 68.6514 260.918 68.9791 260.41 69.1826C259.901 69.3861 259.368 69.4357 258.808 69.3313ZM259.235 68.353C259.672 68.4346 260.084 68.4075 260.471 68.2718C260.86 68.1273 261.187 67.8991 261.453 67.5871C261.73 67.268 261.909 66.89 261.991 66.4531L262.062 66.073L259.729 65.6374C259.161 65.5314 258.706 65.5686 258.365 65.7491C258.033 65.9312 257.827 66.2319 257.749 66.6514C257.671 67.0708 257.765 67.4365 258.032 67.7487C258.301 68.0521 258.702 68.2535 259.235 68.353ZM265.034 70.3443L266.502 62.4802L267.682 62.7004L266.214 70.5645L265.034 70.3443ZM267.312 61.4107C267.094 61.3699 266.92 61.2605 266.79 61.0826C266.671 60.8976 266.632 60.6959 266.672 60.4774C266.713 60.259 266.822 60.0894 266.998 59.9686C267.185 59.8406 267.387 59.7971 267.606 59.8378C267.824 59.8786 267.993 59.9915 268.112 60.1765C268.242 60.3544 268.286 60.5526 268.245 60.7711C268.205 60.9895 268.091 61.1627 267.904 61.2906C267.728 61.4114 267.531 61.4515 267.312 61.4107ZM268.775 71.0428L270.243 63.1787L271.423 63.3989L271.178 64.7096L271.231 64.7194C271.546 64.2899 271.936 63.992 272.401 63.8257C272.868 63.6506 273.381 63.6152 273.94 63.7196C274.517 63.8273 274.998 64.0573 275.385 64.4098C275.771 64.7622 276.042 65.2016 276.197 65.7278C276.353 66.2453 276.374 66.8143 276.258 67.4347L275.355 72.2711L274.175 72.0509L275.044 67.398C275.176 66.6902 275.092 66.1003 274.791 65.6282C274.501 65.149 274.024 64.8474 273.36 64.7234C272.695 64.5994 272.137 64.7077 271.685 65.0483C271.243 65.3817 270.956 65.9023 270.824 66.6101L269.955 71.263L268.775 71.0428ZM279.303 73.0082C278.954 72.943 278.696 72.7998 278.529 72.5788C278.364 72.3491 278.316 72.0463 278.386 71.6706L279.468 65.8773L278.092 65.6204L278.268 64.6767L279.657 64.9361L280.098 62.5769L281.251 62.7922L280.811 65.1514L282.777 65.5185L282.601 66.4622L280.648 66.0976L279.532 72.0743L281.668 72.4731L281.492 73.4168L279.303 73.0082ZM287.228 74.4876L289.21 63.871L291.018 64.2087L292.775 73.76L292.828 73.7698L297.926 65.4982L299.721 65.8334L297.739 76.45L296.534 76.2249L298.268 66.9321L298.216 66.9223L292.942 75.5545L291.946 75.3685L290.145 65.402L290.092 65.3922L288.355 74.6981L287.228 74.4876ZM302.445 77.4777C301.676 77.3342 301.088 76.9983 300.68 76.47C300.281 75.9434 300.146 75.335 300.275 74.6447C300.412 73.9107 300.755 73.3824 301.303 73.0598C301.86 72.7388 302.576 72.6599 303.45 72.823L305.875 73.2757L305.953 72.8563C306.074 72.2097 305.996 71.6798 305.721 71.2667C305.454 70.8552 305.015 70.5923 304.403 70.4781C303.896 70.3835 303.459 70.424 303.092 70.5996C302.726 70.7664 302.455 71.0549 302.279 71.4651L301.073 71.24C301.322 70.536 301.771 70.0229 302.419 69.7008C303.068 69.3699 303.808 69.282 304.638 69.4369C305.582 69.6131 306.271 70.0131 306.706 70.6369C307.143 71.2519 307.273 72.0313 307.097 72.975L306.155 78.0211L305.028 77.8107L305.3 76.3558L305.247 76.346C304.955 76.7978 304.555 77.1255 304.046 77.329C303.538 77.5326 303.004 77.5821 302.445 77.4777ZM302.872 76.4994C303.309 76.581 303.721 76.5539 304.108 76.4182C304.497 76.2737 304.824 76.0455 305.09 75.7335C305.367 75.4144 305.546 75.0364 305.627 74.5995L305.698 74.2194L303.365 73.7839C302.797 73.6778 302.343 73.715 302.002 73.8955C301.669 74.0776 301.464 74.3783 301.386 74.7978C301.307 75.2172 301.402 75.583 301.669 75.8951C301.938 76.1985 302.339 76.3999 302.872 76.4994ZM311.409 79.1512C310.841 79.0452 310.363 78.8203 309.975 78.4766C309.596 78.1345 309.327 77.7091 309.169 77.2003C309.021 76.6844 309.004 76.125 309.116 75.5221L310.034 70.607L311.214 70.8272L310.345 75.4802C310.213 76.188 310.287 76.7806 310.569 77.2582C310.852 77.727 311.313 78.021 311.951 78.1401C312.606 78.2624 313.174 78.1514 313.654 77.807C314.134 77.4626 314.438 76.9496 314.565 76.2681L315.434 71.6151L316.614 71.8354L315.145 79.6995L313.966 79.4793L314.228 78.0768L314.175 78.0671C313.864 78.5243 313.469 78.8484 312.99 79.0394C312.513 79.2216 311.986 79.2589 311.409 79.1512ZM317.822 80.1992L319.29 72.3351L320.405 72.5431L320.094 74.2077L320.146 74.2174C320.417 73.7345 320.787 73.3741 321.257 73.1362C321.735 72.9 322.275 72.8381 322.878 72.9507L323.442 73.0559L323.246 74.1044L322.617 73.987C321.874 73.8483 321.252 73.9853 320.75 74.398C320.257 74.8123 319.932 75.4388 319.775 76.2777L319.002 80.4195L317.822 80.1992ZM323.754 81.3066L325.222 73.4424L326.402 73.6627L324.933 81.5268L323.754 81.3066ZM326.032 72.3729C325.813 72.3321 325.639 72.2228 325.51 72.0449C325.391 71.8599 325.352 71.6581 325.392 71.4397C325.433 71.2212 325.542 71.0516 325.718 70.9308C325.905 70.8029 326.107 70.7593 326.326 70.8001C326.544 70.8409 326.713 70.9538 326.832 71.1388C326.962 71.3167 327.006 71.5149 326.965 71.7333C326.924 71.9518 326.811 72.125 326.624 72.2529C326.448 72.3737 326.25 72.4137 326.032 72.3729ZM330.638 82.7545C329.947 82.6256 329.358 82.3438 328.869 81.9089C328.391 81.467 328.052 80.9109 327.852 80.2405C327.651 79.5701 327.629 78.8199 327.784 77.9898C327.94 77.1509 328.233 76.4551 328.662 75.9021C329.09 75.3492 329.607 74.9573 330.21 74.7264C330.823 74.4971 331.474 74.4469 332.165 74.5758C332.689 74.6736 333.155 74.8647 333.563 75.1488C333.973 75.4243 334.298 75.7923 334.537 76.253C334.778 76.7049 334.907 77.2489 334.924 77.8851L333.692 77.6551C333.658 77.061 333.482 76.603 333.162 76.2811C332.853 75.9521 332.453 75.7419 331.964 75.6505C331.23 75.5135 330.589 75.6786 330.04 76.1459C329.494 76.6045 329.135 77.2925 328.963 78.21C328.794 79.1187 328.88 79.89 329.223 80.5236C329.566 81.1573 330.104 81.5427 330.838 81.6797C331.354 81.7759 331.821 81.7185 332.24 81.5074C332.668 81.2979 333.009 80.9004 333.263 80.3149L334.469 80.54C334.229 81.1463 333.909 81.629 333.507 81.988C333.114 82.3487 332.671 82.5915 332.177 82.7164C331.693 82.8429 331.179 82.8556 330.638 82.7545ZM338.789 84.2762C338.09 84.1457 337.496 83.8631 337.008 83.4283C336.521 82.9847 336.177 82.4278 335.977 81.7574C335.778 81.0783 335.757 80.3193 335.914 79.4804C336.069 78.6503 336.355 77.9624 336.774 77.4166C337.203 76.8636 337.714 76.4709 338.309 76.2384C338.913 76.0075 339.556 75.9556 340.237 76.0829C340.884 76.2036 341.429 76.459 341.871 76.849C342.314 77.2391 342.628 77.7363 342.813 78.3406C343.001 78.9362 343.025 79.6054 342.886 80.3481L342.776 80.9379L337.009 79.8613C336.881 80.7416 336.995 81.4863 337.352 82.0954C337.718 82.6974 338.26 83.0653 338.977 83.199C339.483 83.2936 339.94 83.2477 340.345 83.0612C340.761 82.8675 341.071 82.5637 341.275 82.1496L342.481 82.3748C342.269 82.8778 341.976 83.2887 341.6 83.6073C341.225 83.9172 340.797 84.1311 340.313 84.2488C339.839 84.3682 339.331 84.3774 338.789 84.2762ZM337.251 78.9298L341.812 79.7813C341.881 79.0709 341.752 78.4815 341.423 78.0133C341.105 77.5379 340.64 77.2432 340.029 77.129C339.417 77.0148 338.864 77.1195 338.369 77.4431C337.877 77.7581 337.504 78.2536 337.251 78.9298Z" fill="black"/>
<path d="M78.5815 94.7376L80.0679 86.7752L80.9723 86.944L79.6363 94.1004L83.6077 94.8418L83.4572 95.6479L78.5815 94.7376ZM86.1585 96.2641C85.5818 96.1564 85.1405 95.9045 84.8347 95.5083C84.5354 95.1133 84.4341 94.657 84.5308 94.1393C84.6335 93.5888 84.8906 93.1926 85.302 92.9506C85.7199 92.7099 86.2566 92.6507 86.9119 92.7731L88.7305 93.1126L88.7892 92.798C88.8798 92.313 88.8217 91.9156 88.6151 91.6058C88.415 91.2972 88.0855 91.1 87.6268 91.0144C87.2467 90.9434 86.9189 90.9738 86.6434 91.1055C86.3691 91.2306 86.1659 91.447 86.0339 91.7546L85.1295 91.5858C85.3163 91.0578 85.6526 90.673 86.1385 90.4314C86.6257 90.1832 87.1805 90.1172 87.8031 90.2335C88.5109 90.3656 89.0279 90.6656 89.3543 91.1334C89.6819 91.5947 89.7796 92.1792 89.6475 92.887L88.9409 96.6716L88.0955 96.5138L88.2992 95.4227L88.2599 95.4153C88.0407 95.7542 87.7405 95.9999 87.3593 96.1526C86.9782 96.3052 86.5779 96.3424 86.1585 96.2641ZM86.4785 95.5304C86.8062 95.5915 87.1152 95.5712 87.4055 95.4694C87.697 95.3611 87.9426 95.1899 88.1422 94.9559C88.3497 94.7166 88.484 94.4331 88.5451 94.1054L88.5984 93.8203L86.8486 93.4937C86.4226 93.4142 86.0817 93.4421 85.8259 93.5774C85.5766 93.714 85.4226 93.9395 85.3638 94.2541C85.3051 94.5687 85.376 94.843 85.5764 95.0771C85.7781 95.3046 86.0788 95.4557 86.4785 95.5304ZM92.8815 97.5192C92.4556 97.4397 92.0971 97.271 91.8061 97.0132C91.5217 96.7567 91.3202 96.4376 91.2015 96.056C91.0906 95.6691 91.0774 95.2496 91.1618 94.7974L91.85 91.1111L92.7347 91.2762L92.0832 94.7659C91.9841 95.2968 92.0402 95.7413 92.2514 96.0994C92.4638 96.451 92.8092 96.6715 93.2876 96.7608C93.7791 96.8526 94.2049 96.7693 94.5651 96.511C94.9253 96.2527 95.1531 95.868 95.2486 95.3568L95.9 91.8671L96.7847 92.0323L95.6837 97.9304L94.7989 97.7652L94.9953 96.7134L94.956 96.7061C94.7224 97.049 94.4261 97.2921 94.0671 97.4353C93.7092 97.572 93.3141 97.5999 92.8815 97.5192ZM99.478 98.7608C98.7834 98.6312 98.2516 98.3556 97.8827 97.934C97.515 97.5059 97.3647 97.0032 97.4318 96.4257L98.3165 96.5908C98.2886 96.9586 98.3873 97.2653 98.6127 97.5108C98.846 97.751 99.1919 97.914 99.6507 97.9996C100.077 98.0791 100.416 98.0578 100.67 97.9355C100.924 97.8067 101.08 97.5883 101.138 97.2803C101.227 96.8019 100.954 96.4288 100.319 96.1611L99.4223 95.7902C98.4153 95.3716 97.9877 94.756 98.1394 93.9434C98.2348 93.4322 98.5019 93.0548 98.9408 92.8112C99.3808 92.561 99.9089 92.4935 100.525 92.6085C101.128 92.721 101.599 92.9785 101.937 93.3808C102.284 93.7777 102.435 94.2537 102.393 94.8086L101.528 94.6471C101.523 94.3072 101.417 94.0262 101.207 93.804C101.004 93.583 100.719 93.4382 100.352 93.3697C99.9853 93.3012 99.6751 93.3281 99.4217 93.4503C99.176 93.5672 99.0275 93.7633 98.9761 94.0385C98.9345 94.2614 98.9795 94.4563 99.1111 94.6232C99.2439 94.7837 99.474 94.9317 99.8013 95.0674L100.698 95.4384C101.202 95.6477 101.559 95.9144 101.77 96.2386C101.988 96.5574 102.057 96.9331 101.977 97.3657C101.874 97.9161 101.598 98.3191 101.151 98.5746C100.704 98.8236 100.146 98.8856 99.478 98.7608ZM104.544 99.6964C103.967 99.5887 103.526 99.3368 103.22 98.9406C102.921 98.5457 102.82 98.0893 102.916 97.5716C103.019 97.0211 103.276 96.6249 103.687 96.383C104.105 96.1422 104.642 96.083 105.297 96.2054L107.116 96.5449L107.175 96.2303C107.265 95.7454 107.207 95.348 107.001 95.0381C106.8 94.7295 106.471 94.5324 106.012 94.4467C105.632 94.3758 105.304 94.4061 105.029 94.5378C104.755 94.6629 104.551 94.8793 104.419 95.187L103.515 95.0181C103.702 94.4901 104.038 94.1053 104.524 93.8637C105.011 93.6155 105.566 93.5496 106.189 93.6658C106.896 93.7979 107.413 94.0979 107.74 94.5658C108.067 95.027 108.165 95.6116 108.033 96.3193L107.326 100.104L106.481 99.9461L106.685 98.855L106.645 98.8476C106.426 99.1865 106.126 99.4322 105.745 99.5849C105.364 99.7375 104.963 99.7747 104.544 99.6964ZM104.864 98.9627C105.192 99.0239 105.501 99.0036 105.791 98.9018C106.082 98.7934 106.328 98.6222 106.528 98.3882C106.735 98.1489 106.869 97.8654 106.931 97.5377L106.984 97.2527L105.234 96.926C104.808 96.8465 104.467 96.8744 104.211 97.0097C103.962 97.1463 103.808 97.3719 103.749 97.6864C103.691 98.001 103.761 98.2753 103.962 98.5094C104.164 98.737 104.464 98.8881 104.864 98.9627ZM109.174 100.449L110.275 94.5507L111.16 94.7159L110.976 95.6989L111.015 95.7062C111.252 95.3842 111.544 95.1607 111.893 95.036C112.243 94.9047 112.628 94.8781 113.047 94.9564C113.48 95.0372 113.841 95.2097 114.131 95.4741C114.421 95.7384 114.624 96.0679 114.74 96.4626C114.857 96.8507 114.872 97.2775 114.786 97.7427L114.108 101.37L113.224 101.205L113.875 97.7152C113.974 97.1844 113.911 96.7419 113.686 96.3879C113.468 96.0285 113.11 95.8023 112.612 95.7093C112.114 95.6163 111.695 95.6975 111.356 95.9529C111.024 96.203 110.809 96.5935 110.71 97.1243L110.058 100.614L109.174 100.449ZM115.959 101.716L117.06 95.8174L117.945 95.9826L117.761 96.9656L117.8 96.9729C118.037 96.6509 118.33 96.4274 118.678 96.3027C119.028 96.1713 119.413 96.1448 119.833 96.2231C120.265 96.3039 120.626 96.4764 120.916 96.7407C121.206 97.0051 121.409 97.3346 121.525 97.7293C121.642 98.1174 121.658 98.5441 121.571 99.0094L120.894 102.637L120.009 102.472L120.66 98.9819C120.759 98.4511 120.696 98.0086 120.471 97.6546C120.253 97.2952 119.895 97.069 119.397 96.976C118.899 96.883 118.48 96.9642 118.141 97.2196C117.809 97.4697 117.594 97.8601 117.495 98.391L116.844 101.881L115.959 101.716ZM125.12 103.548C124.596 103.45 124.151 103.238 123.785 102.912C123.419 102.579 123.162 102.162 123.011 101.659C122.862 101.149 122.846 100.58 122.964 99.9511C123.08 99.3285 123.295 98.8126 123.609 98.4032C123.931 97.9885 124.314 97.6939 124.761 97.5195C125.213 97.3464 125.695 97.3075 126.207 97.4029C126.692 97.4935 127.1 97.685 127.432 97.9776C127.764 98.2701 128 98.643 128.139 99.0962C128.279 99.5429 128.297 100.045 128.193 100.602L128.111 101.044L123.785 100.237C123.689 100.897 123.775 101.455 124.042 101.912C124.317 102.364 124.724 102.64 125.261 102.74C125.641 102.811 125.983 102.777 126.288 102.637C126.599 102.491 126.832 102.264 126.985 101.953L127.889 102.122C127.731 102.499 127.51 102.807 127.228 103.046C126.948 103.279 126.626 103.439 126.264 103.527C125.908 103.617 125.527 103.624 125.12 103.548ZM123.967 99.5381L127.388 100.177C127.44 99.6439 127.342 99.2019 127.096 98.8507C126.857 98.4942 126.509 98.2731 126.05 98.1875C125.591 98.1019 125.176 98.1804 124.806 98.4231C124.436 98.6593 124.156 99.031 123.967 99.5381ZM135.299 105.448C134.61 105.32 134.033 105.032 133.567 104.586C133.101 104.139 132.775 103.58 132.589 102.908C132.404 102.229 132.386 101.49 132.535 100.69C132.686 99.8774 132.977 99.1925 133.407 98.6352C133.843 98.0791 134.371 97.6827 134.992 97.4459C135.614 97.2025 136.282 97.1476 136.996 97.2809C137.547 97.3837 138.019 97.577 138.414 97.8609C138.81 98.1383 139.11 98.4894 139.316 98.9143C139.529 99.3339 139.631 99.8073 139.62 100.334L138.677 100.158C138.686 99.6377 138.528 99.1945 138.203 98.8286C137.885 98.4574 137.432 98.2168 136.842 98.1066C136.292 98.0039 135.781 98.051 135.31 98.2479C134.847 98.4395 134.452 98.7591 134.124 99.2065C133.803 99.6552 133.581 100.207 133.459 100.863C133.34 101.498 133.348 102.09 133.484 102.637C133.62 103.178 133.864 103.631 134.217 103.995C134.576 104.36 135.018 104.592 135.542 104.69C135.981 104.772 136.387 104.759 136.759 104.653C137.132 104.546 137.444 104.363 137.696 104.105C137.947 103.847 138.107 103.538 138.174 103.177L138.281 102.607L135.882 102.159L136.029 101.373L138.427 101.821C138.709 101.873 138.911 101.992 139.032 102.178C139.161 102.358 139.2 102.589 139.147 102.871L138.574 105.938L137.709 105.776L137.941 104.537L137.901 104.53C137.685 104.89 137.342 105.162 136.874 105.345C136.407 105.523 135.882 105.557 135.299 105.448ZM141.81 106.654C141.234 106.546 140.792 106.294 140.486 105.898C140.187 105.503 140.086 105.046 140.183 104.529C140.285 103.978 140.542 103.582 140.954 103.34C141.372 103.099 141.908 103.04 142.564 103.163L144.382 103.502L144.441 103.187C144.532 102.703 144.473 102.305 144.267 101.995C144.067 101.687 143.737 101.489 143.279 101.404C142.898 101.333 142.571 101.363 142.295 101.495C142.021 101.62 141.818 101.836 141.686 102.144L140.781 101.975C140.968 101.447 141.304 101.062 141.79 100.821C142.277 100.573 142.832 100.507 143.455 100.623C144.163 100.755 144.68 101.055 145.006 101.523C145.334 101.984 145.431 102.569 145.299 103.276L144.593 107.061L143.747 106.903L143.951 105.812L143.912 105.805C143.692 106.144 143.392 106.389 143.011 106.542C142.63 106.695 142.23 106.732 141.81 106.654ZM142.13 105.92C142.458 105.981 142.767 105.961 143.057 105.859C143.349 105.751 143.594 105.579 143.794 105.345C144.001 105.106 144.136 104.823 144.197 104.495L144.25 104.21L142.5 103.883C142.074 103.804 141.734 103.832 141.478 103.967C141.228 104.103 141.074 104.329 141.016 104.644C140.957 104.958 141.028 105.232 141.228 105.467C141.43 105.694 141.731 105.845 142.13 105.92ZM146.558 107.428L147.659 101.53L148.495 101.686L148.262 102.934L148.301 102.942C148.504 102.579 148.782 102.309 149.134 102.131C149.492 101.954 149.898 101.907 150.35 101.992L150.773 102.07L150.626 102.857L150.154 102.769C149.597 102.665 149.13 102.768 148.754 103.077C148.384 103.388 148.14 103.858 148.023 104.487L147.443 107.593L146.558 107.428ZM153.044 108.761C152.52 108.663 152.075 108.451 151.708 108.125C151.343 107.792 151.085 107.375 150.935 106.872C150.786 106.362 150.77 105.793 150.888 105.164C151.004 104.542 151.219 104.026 151.533 103.616C151.854 103.202 152.238 102.907 152.685 102.733C153.137 102.559 153.619 102.521 154.13 102.616C154.615 102.706 155.024 102.898 155.356 103.191C155.688 103.483 155.923 103.856 156.063 104.309C156.203 104.756 156.221 105.258 156.117 105.815L156.035 106.257L151.709 105.45C151.613 106.11 151.699 106.669 151.966 107.125C152.241 107.577 152.648 107.853 153.185 107.953C153.565 108.024 153.907 107.99 154.211 107.85C154.523 107.704 154.756 107.477 154.909 107.166L155.813 107.335C155.654 107.712 155.434 108.02 155.152 108.259C154.871 108.492 154.55 108.652 154.187 108.74C153.832 108.83 153.451 108.837 153.044 108.761ZM151.891 104.751L155.311 105.39C155.363 104.857 155.266 104.415 155.02 104.064C154.781 103.707 154.433 103.486 153.974 103.401C153.515 103.315 153.1 103.393 152.729 103.636C152.36 103.872 152.08 104.244 151.891 104.751Z" fill="black"/>
<path d="M323.604 140.48L322.093 131.958L323.105 132.147L324.36 139.645L324.4 139.652L328.256 133.109L329.229 133.29L324.745 140.693L323.604 140.48ZM330.294 141.851C329.77 141.753 329.324 141.541 328.958 141.215C328.593 140.883 328.335 140.465 328.185 139.962C328.036 139.453 328.02 138.883 328.137 138.254C328.254 137.632 328.469 137.116 328.782 136.706C329.104 136.292 329.488 135.997 329.934 135.823C330.387 135.65 330.869 135.611 331.38 135.706C331.865 135.797 332.274 135.988 332.606 136.281C332.937 136.573 333.173 136.946 333.312 137.399C333.453 137.846 333.471 138.348 333.367 138.905L333.284 139.347L328.959 138.54C328.863 139.2 328.948 139.759 329.216 140.216C329.491 140.667 329.897 140.943 330.435 141.043C330.815 141.114 331.157 141.08 331.461 140.94C331.773 140.795 332.005 140.567 332.158 140.256L333.063 140.425C332.904 140.802 332.684 141.111 332.402 141.349C332.121 141.582 331.8 141.742 331.437 141.831C331.081 141.92 330.7 141.927 330.294 141.851ZM329.14 137.841L332.561 138.48C332.613 137.947 332.516 137.505 332.27 137.154C332.031 136.797 331.682 136.576 331.224 136.491C330.765 136.405 330.35 136.484 329.979 136.726C329.61 136.963 329.33 137.334 329.14 137.841ZM335.511 142.703L334.331 136.379L335.246 136.55L336.197 141.916L336.236 141.923L339.04 137.258L339.915 137.422L336.533 142.894L335.511 142.703ZM341.998 144.036C341.474 143.938 341.028 143.726 340.662 143.4C340.297 143.068 340.039 142.65 339.889 142.147C339.74 141.638 339.724 141.068 339.842 140.439C339.958 139.817 340.173 139.301 340.487 138.891C340.808 138.477 341.192 138.182 341.638 138.008C342.091 137.835 342.573 137.796 343.084 137.891C343.569 137.982 343.978 138.173 344.31 138.466C344.642 138.758 344.877 139.131 345.016 139.584C345.157 140.031 345.175 140.533 345.071 141.09L344.988 141.532L340.663 140.725C340.567 141.385 340.653 141.944 340.92 142.401C341.195 142.852 341.601 143.128 342.139 143.228C342.519 143.299 342.861 143.265 343.165 143.125C343.477 142.98 343.709 142.752 343.862 142.441L344.767 142.61C344.608 142.987 344.388 143.296 344.106 143.534C343.825 143.767 343.504 143.927 343.141 144.016C342.785 144.105 342.404 144.112 341.998 144.036ZM340.844 140.026L344.265 140.665C344.317 140.132 344.22 139.69 343.974 139.339C343.735 138.982 343.386 138.761 342.928 138.676C342.469 138.59 342.054 138.669 341.683 138.911C341.314 139.148 341.034 139.519 340.844 140.026ZM345.025 146.921L345.157 146.213L346.513 146.466L347.404 144.964L346.036 138.564L346.95 138.735L348.036 143.922L348.075 143.93L350.734 139.441L351.619 139.607L348.286 145.088L347.451 146.458C347.295 146.714 347.149 146.91 347.015 147.048C346.881 147.186 346.676 147.229 346.401 147.178L345.025 146.921ZM357.683 146.964C356.994 146.836 356.417 146.548 355.951 146.102C355.485 145.656 355.159 145.096 354.973 144.424C354.788 143.745 354.77 143.006 354.919 142.206C355.07 141.394 355.361 140.709 355.791 140.151C356.227 139.595 356.755 139.199 357.376 138.962C357.998 138.719 358.666 138.664 359.38 138.797C359.931 138.9 360.403 139.093 360.798 139.377C361.194 139.654 361.494 140.006 361.7 140.431C361.913 140.85 362.015 141.323 362.004 141.851L361.061 141.674C361.07 141.154 360.912 140.711 360.587 140.345C360.269 139.974 359.816 139.733 359.226 139.623C358.676 139.52 358.165 139.567 357.694 139.764C357.231 139.956 356.836 140.275 356.508 140.723C356.187 141.171 355.965 141.723 355.843 142.379C355.724 143.014 355.732 143.606 355.868 144.153C356.004 144.694 356.248 145.147 356.601 145.511C356.96 145.877 357.402 146.108 357.926 146.206C358.365 146.288 358.771 146.276 359.143 146.169C359.516 146.062 359.828 145.88 360.08 145.621C360.331 145.363 360.491 145.054 360.558 144.693L360.665 144.123L358.266 143.675L358.413 142.889L360.811 143.337C361.093 143.389 361.295 143.508 361.416 143.694C361.545 143.874 361.584 144.105 361.531 144.387L360.958 147.454L360.093 147.292L360.325 146.054L360.285 146.046C360.069 146.406 359.726 146.678 359.258 146.862C358.791 147.039 358.266 147.073 357.683 146.964ZM364.194 148.17C363.618 148.062 363.176 147.81 362.87 147.414C362.571 147.019 362.47 146.563 362.567 146.045C362.669 145.494 362.926 145.098 363.338 144.856C363.756 144.616 364.292 144.556 364.948 144.679L366.766 145.018L366.825 144.704C366.916 144.219 366.857 143.821 366.651 143.511C366.451 143.203 366.121 143.006 365.663 142.92C365.282 142.849 364.955 142.879 364.679 143.011C364.405 143.136 364.202 143.353 364.07 143.66L363.165 143.491C363.352 142.963 363.688 142.579 364.174 142.337C364.661 142.089 365.216 142.023 365.839 142.139C366.547 142.271 367.064 142.571 367.39 143.039C367.718 143.5 367.815 144.085 367.683 144.793L366.977 148.577L366.131 148.419L366.335 147.328L366.296 147.321C366.076 147.66 365.776 147.906 365.395 148.058C365.014 148.211 364.614 148.248 364.194 148.17ZM364.514 147.436C364.842 147.497 365.151 147.477 365.441 147.375C365.733 147.267 365.978 147.096 366.178 146.862C366.385 146.622 366.52 146.339 366.581 146.011L366.634 145.726L364.884 145.399C364.458 145.32 364.118 145.348 363.862 145.483C363.612 145.62 363.458 145.845 363.4 146.16C363.341 146.474 363.412 146.749 363.612 146.983C363.814 147.21 364.115 147.361 364.514 147.436ZM368.942 148.944L370.043 143.046L370.879 143.202L370.646 144.451L370.685 144.458C370.888 144.096 371.166 143.825 371.518 143.647C371.876 143.47 372.282 143.423 372.734 143.508L373.157 143.587L373.01 144.373L372.538 144.285C371.981 144.181 371.514 144.284 371.138 144.593C370.768 144.904 370.524 145.374 370.407 146.003L369.827 149.109L368.942 148.944ZM375.428 150.277C374.904 150.179 374.459 149.967 374.092 149.641C373.727 149.309 373.469 148.891 373.319 148.388C373.17 147.879 373.154 147.309 373.272 146.68C373.388 146.058 373.603 145.542 373.917 145.132C374.238 144.718 374.622 144.423 375.068 144.249C375.521 144.076 376.003 144.037 376.514 144.132C376.999 144.223 377.408 144.414 377.74 144.707C378.072 144.999 378.307 145.372 378.447 145.825C378.587 146.272 378.605 146.774 378.501 147.331L378.419 147.773L374.093 146.966C373.997 147.626 374.083 148.185 374.35 148.642C374.625 149.093 375.032 149.369 375.569 149.469C375.949 149.54 376.291 149.506 376.595 149.366C376.907 149.221 377.14 148.993 377.293 148.682L378.197 148.851C378.038 149.228 377.818 149.537 377.536 149.775C377.255 150.008 376.934 150.168 376.571 150.257C376.216 150.346 375.835 150.353 375.428 150.277ZM374.275 146.267L377.695 146.906C377.747 146.373 377.65 145.931 377.404 145.58C377.165 145.223 376.817 145.002 376.358 144.917C375.899 144.831 375.484 144.91 375.113 145.152C374.744 145.389 374.464 145.76 374.275 146.267Z" fill="black"/>
<path fill-rule="evenodd" clip-rule="evenodd" d="M246.573 117.201L250.53 122.904L250.771 123.25L250.422 123.486L244.675 127.378L244.208 126.688L249.605 123.033L245.888 117.676L246.573 117.201ZM241.657 116.284L245.615 121.986L245.856 122.333L245.507 122.568L239.76 126.46L239.292 125.771L244.69 122.116L240.972 116.759L241.657 116.284Z" fill="black"/>
</g>
<defs>
<filter id="filter0_dddd_447_1527" x="-3.42908" y="-3.75586" width="431.657" height="261.405" filterUnits="userSpaceOnUse" color-interpolation-filters="sRGB">
<feFlood flood-opacity="0" result="BackgroundImageFix"/>
<feColorMatrix in="SourceAlpha" type="matrix" values="0 0 0 0 0 0 0 0 0 0 0 0 0 0 0 0 0 0 127 0" result="hardAlpha"/>
<feOffset dx="-2" dy="3"/>
<feGaussianBlur stdDeviation="4.5"/>
<feColorMatrix type="matrix" values="0 0 0 0 0 0 0 0 0 0 0 0 0 0 0 0 0 0 0.09 0"/>
<feBlend mode="normal" in2="BackgroundImageFix" result="effect1_dropShadow_447_1527"/>
<feColorMatrix in="SourceAlpha" type="matrix" values="0 0 0 0 0 0 0 0 0 0 0 0 0 0 0 0 0 0 127 0" result="hardAlpha"/>
<feOffset dx="-8" dy="14"/>
<feGaussianBlur stdDeviation="8"/>
<feColorMatrix type="matrix" values="0 0 0 0 0 0 0 0 0 0 0 0 0 0 0 0 0 0 0.08 0"/>
<feBlend mode="normal" in2="effect1_dropShadow_447_1527" result="effect2_dropShadow_447_1527"/>
<feColorMatrix in="SourceAlpha" type="matrix" values="0 0 0 0 0 0 0 0 0 0 0 0 0 0 0 0 0 0 127 0" result="hardAlpha"/>
<feOffset dx="-17" dy="31"/>
<feGaussianBlur stdDeviation="10.5"/>
<feColorMatrix type="matrix" values="0 0 0 0 0 0 0 0 0 0 0 0 0 0 0 0 0 0 0.05 0"/>
<feBlend mode="normal" in2="effect2_dropShadow_447_1527" result="effect3_dropShadow_447_1527"/>
<feColorMatrix in="SourceAlpha" type="matrix" values="0 0 0 0 0 0 0 0 0 0 0 0 0 0 0 0 0 0 127 0" result="hardAlpha"/>
<feOffset dx="-31" dy="55"/>
<feGaussianBlur stdDeviation="12.5"/>
<feColorMatrix type="matrix" values="0 0 0 0 0 0 0 0 0 0 0 0 0 0 0 0 0 0 0.01 0"/>
<feBlend mode="normal" in2="effect3_dropShadow_447_1527" result="effect4_dropShadow_447_1527"/>
<feBlend mode="normal" in="SourceGraphic" in2="effect4_dropShadow_447_1527" result="shape"/>
</filter>
<clipPath id="clip0_447_1527">
<rect width="59" height="20" fill="white" transform="translate(116.294 27.3174) rotate(10.5747)"/>
</clipPath>
<clipPath id="clip1_447_1527">
<rect width="21" height="20" fill="white" transform="translate(90.8935 22.5754) rotate(10.5747)"/>
</clipPath>
</defs>
</svg>
